<svg width="1655" height="721" viewBox="0 0 1655 721" fill="none" xmlns="http://www.w3.org/2000/svg">
<path d="M470.779 169.563C470.779 169.563 452.279 193.563 442.279 207.563C432.279 221.563 424.529 230.813 422.029 231.563C419.529 232.313 411.529 234.563 408.779 233.563C406.029 232.563 402.279 232.063 403.529 234.063C404.779 236.063 405.529 237.563 408.029 237.563C410.529 237.563 406.779 240.813 403.779 242.063C400.779 243.313 386.779 248.563 382.279 249.313C377.779 250.063 371.529 250.063 372.279 252.563C373.029 255.063 377.529 254.813 381.279 254.313C385.029 253.813 387.029 253.813 387.029 253.813C387.029 253.813 377.529 257.313 374.029 258.063C370.529 258.813 367.779 257.563 368.279 259.313C368.779 261.063 370.279 262.563 370.279 262.563C370.279 262.563 371.529 265.313 375.029 264.813C378.529 264.313 382.529 264.063 382.529 264.063C382.529 264.063 381.779 268.063 388.779 266.063C395.779 264.063 404.279 259.813 406.529 260.063C408.779 260.313 420.279 254.563 426.279 250.813C432.279 247.063 433.029 243.813 436.029 240.313C439.029 236.813 459.529 222.563 466.529 216.313C473.529 210.063 493.279 197.563 501.779 187.313C510.279 177.063 514.029 171.313 516.779 162.313C519.529 153.313 520.029 140.313 516.779 137.313C513.529 134.313 470.779 169.563 470.779 169.563Z" fill="#06D4F9"/>
<path d="M366.279 120.146C359.112 131.293 344.447 136.694 332.927 141.756C316.113 149.144 299.568 154.721 281.627 158.633C243.103 167.033 195.249 169.07 163.201 194.878C150.631 205 130.036 223.854 126.325 239.964C140.982 228.587 153.242 215.153 171.19 208.667C187.094 202.92 203.927 200.892 220.587 199.423C276.046 194.532 324.629 166.175 366.279 120.146Z" fill="url(#paint0_linear_2_216)"/>
<path d="M403.612 72.146C396.5 73.133 390.047 78.363 383.808 81.948C366.171 92.081 349.164 103.252 331.578 113.514C296.233 134.14 258.421 150.731 216.719 148.837C188.405 147.551 162.841 133.122 135.434 128.798C94.6616 122.365 47.6566 148.982 24.6196 181.224C4.95361 208.749 -1.76039 243.791 0.381607 277.225C1.47361 294.28 7.21061 309.854 15.2146 324.657C20.8336 335.049 27.0836 343.333 35.8976 354.17C22.0096 336.43 13.3806 318.611 10.9296 295.173C7.53861 262.744 13.5156 226.042 33.2676 199.097C51.7596 173.871 80.8206 155.056 111.912 150.102C143.803 145.02 174.113 163.154 204.771 168.192C279.073 180.401 355.155 139.882 403.612 72.146Z" fill="url(#paint1_linear_2_216)"/>
<path d="M520.258 65.8921C514.685 80.1101 508.503 90.26 495.002 98.543C481.216 107.001 465.249 112.437 455.861 126.486C448.956 136.819 450.257 146.538 446.813 156.771C443.074 132.883 450.737 114.698 468.645 99.3851C482.211 87.7861 498.82 74.0521 498.003 54.4551C509.242 53.8771 516.809 59.6691 523.863 67.9291C523.157 68.1391 522.437 68.1811 520.258 65.8921Z" fill="url(#paint2_linear_2_216)"/>
<path d="M464.279 36.813C454.861 31.271 434.817 41.294 425.893 44.538C394.927 55.794 367.677 74.187 338.242 88.665C306.752 104.153 271.339 114.533 236.279 118.813C206.713 122.423 177.713 114.486 154.285 97.161C138.524 85.505 126.206 65.61 122.583 46.343C119.633 30.659 122.735 15.883 122.308 0.322021C105.773 37.695 112.375 87.104 143.746 114.813C162.909 131.739 189.756 140.002 214.213 145.48C232.049 149.475 259.342 145.396 277.613 142.147C303.398 137.561 318.675 130.257 340.318 116.474C363.908 101.451 382.56 83.028 403.117 64.431C416.947 51.92 440.613 36.44 464.279 36.813Z" fill="url(#paint3_linear_2_216)"/>
<path d="M420.279 174.813C406.589 177.315 396.249 199.929 390.982 210.961C382.095 229.577 376.71 247.85 375.587 268.536C374.419 290.06 379.267 310.7 381.537 331.95C384.928 363.692 379.988 396.874 368.266 426.54C360.93 445.106 348.789 461.571 334.572 475.468C324.592 485.224 314.808 492.741 301.784 498.712C342.946 490.146 358.118 464.413 373.026 443.479C391.324 417.785 402.814 388.372 404.636 356.781C408.067 297.277 387.299 230.646 420.279 174.813Z" fill="url(#paint4_linear_2_216)"/>
<path d="M368.279 160.146C357.768 163.539 345.072 175.937 336.28 183.089C319.311 196.894 300.137 209.799 285.578 226.294C255.453 260.426 228.988 305.997 220.298 351.224C215.496 376.215 213.953 406.229 220.98 430.918C220.006 397.174 231.897 364.319 243.272 332.03C261.212 281.111 295.971 244.214 333.746 206.617C348.182 192.251 365.088 184.364 368.279 160.146Z" fill="url(#paint5_linear_2_216)"/>
<path opacity="0.81" d="M396.946 126.146C393.168 130.138 390.826 135.463 387.36 139.794C380.783 148.014 372.243 154.753 364.782 162.18C348.732 178.158 332.565 195.46 321.029 215.202C307.524 238.314 293.614 261.767 284.67 287.139C275.783 312.347 270.387 338.714 264.946 364.828C260.647 385.46 253.37 411.809 238.539 427.572C250.973 419.207 260.831 402.746 268.61 390.148C277.831 375.215 282.577 357.487 287.612 340.677C295.468 314.45 300.139 287.506 310.114 261.906C315.421 248.284 321.565 234.211 328.544 221.376C334.183 211.004 339.726 200.034 347.042 190.739C356.973 178.122 369.583 167.992 378.946 154.813C385.415 145.706 394.153 137.896 396.946 126.146Z" fill="url(#paint6_linear_2_216)"/>
<path d="M338.946 162.813C328.108 183.976 301.278 201.729 280.975 213.481C262.321 224.279 243.144 233.26 225.118 245.366C201.394 261.299 179.045 278.769 161.264 301.311C149.296 316.483 139.974 333.018 134.43 351.614C131.617 361.05 129.129 371.324 129.576 381.214C129.846 387.184 131.975 392.805 132.277 398.666C132.335 349.943 164.797 301.884 204.72 275.479C249.483 245.873 303.865 236.674 344.342 199.413C354.424 190.132 361.268 175.865 366.81 163.595C372.196 151.673 378.833 138.954 378.905 125.561C372.813 129.543 367.988 136.396 362.783 141.4C351.942 151.823 339.349 159.945 338.946 162.813Z" fill="url(#paint7_linear_2_216)"/>
<path opacity="0.81" d="M490.279 62.146C476.692 60.895 461.478 88.026 455.597 97.479C445.809 113.212 437.652 131.048 436.337 149.812C435.15 166.751 435.354 182.355 439.36 198.861C443.35 215.302 446.99 232.658 447.945 249.614C448.502 259.503 449.021 269.026 445.628 278.463C443.072 285.571 438.502 290.852 435.017 297.241C445.827 289.264 458.095 278.256 461.638 264.812C464.72 253.115 464.713 239.959 463.595 228.05C462.03 211.373 459.008 194.66 458.946 177.786C458.903 166.069 457.903 153.723 459.748 142.133C461.616 130.398 466.992 118.559 471.563 107.647C477.339 93.857 492.016 71.8891 508.073 68.6971C503.669 62.7431 494.268 66.849 490.279 62.146Z" fill="url(#paint8_linear_2_216)"/>
<path d="M445.933 49.295C442.28 51.818 440.234 56.804 437.111 60.299C431.212 66.9 423.629 71.811 415.852 75.98C387.165 91.361 357.04 103.832 325.986 113.695C272.126 130.8 205.527 153.429 185.046 212.053C179.87 226.868 179.18 242.183 179.647 257.735C179.944 267.639 184.406 274.57 186.894 283.615C187.507 272.917 184.833 262.717 187.566 252.059C190.678 239.922 197.291 228.07 205.266 218.526C226.787 192.771 254.29 172.382 285.64 160.397C318.037 148.012 352.666 139.887 383.672 124.366C404.513 113.933 431.1 102.182 444.546 81.922C457.006 63.148 466.471 46.376 484.69 32.65C470.542 35.201 451.758 39.205 445.933 49.295Z" fill="url(#paint9_linear_2_216)"/>
<path d="M394.279 103.48C377.04 118.528 360.719 133.556 341.776 146.979C316.429 164.94 289.079 184.6 260.259 196.492C196.361 222.859 131.217 265.157 93.7467 324.559C79.5097 347.13 73.3007 374.844 72.9397 401.312C72.6027 426.056 79.4927 461.243 102.149 476.064C100.14 469.196 93.8437 462.44 90.2287 456.027C85.2437 447.184 82.8317 438.364 82.4027 428.258C81.6187 409.777 85.0897 389.59 91.4477 372.21C103.136 340.264 121.306 312.568 146.733 289.796C176.684 262.973 218.569 249.434 253.54 230.697C308.718 201.135 372.016 165.784 394.279 103.48Z" fill="url(#paint10_linear_2_216)"/>
<path d="M459.643 34.863C450.92 42.229 438.225 45.33 427.539 48.933C408.01 55.517 386.65 59.495 365.995 58.673C324.674 57.029 274.305 44.575 237.213 67.989C223.238 76.811 210.375 90.455 203.037 105.309C198.645 114.201 191.971 127.601 192.78 137.725C198.069 128.526 207.027 122.532 215.558 116.407C227.452 107.867 240.217 98.238 254.308 93.66C272.119 87.873 291.816 82.696 310.638 81.101C330.716 79.4 350.009 82.216 369.969 78.879C384.867 76.388 400.64 71.419 414.383 65.163C422.471 61.481 430.851 57.442 437.996 52.109C444.32 47.386 461.284 36.824 459.643 34.863Z" fill="url(#paint11_linear_2_216)"/>
<path d="M469.024 19.709C453.661 19.709 443.6 24.229 429.697 30.172C415.393 36.287 388.873 48.11 374.028 39.101C387.214 48.836 412.545 51.665 428.165 49.322C437.478 47.925 449.052 45.163 457.145 40.275C463.298 36.558 466.911 31.095 474.544 30.571C472.111 27.954 471.963 24.58 469.024 19.709Z" fill="url(#paint12_linear_2_216)"/>
<path opacity="0.81" d="M478.405 37.749C469.631 37.478 458.007 46.846 451.703 52.144C440.284 61.741 433.959 73.819 428.614 87.396C417.285 116.174 423.966 147.36 411.997 175.632C404.731 192.794 391.517 199.829 376.682 208.625C394.4 210.673 417.728 193.907 427.169 180.025C436.988 165.587 438.86 148.975 443.768 132.439C449.304 113.789 453.773 96.271 464.154 79.406C470.033 69.855 489.947 55.402 487.677 42.909C484.287 43.111 479.987 43.137 478.405 37.749Z" fill="url(#paint13_linear_2_216)"/>
<path opacity="0.81" d="M432.944 106.302C425.973 115.814 420.918 124.234 410.737 130.995C397.044 140.088 382.641 147.133 370.201 158.419C343.386 182.744 333.405 212.082 336.251 247.533C337.552 228.428 353.94 209.197 367.459 196.904C379.225 186.205 392.462 178.055 404.801 168.007C414.062 160.466 421.622 151.808 426.644 140.922C431.539 130.312 430.164 118.61 432.944 106.302Z" fill="url(#paint14_linear_2_216)"/>
<path opacity="0.81" d="M502.218 49.295C486.137 50.935 485.758 74.951 486.343 86.835C487.219 104.636 487.083 121.496 479.064 138.221C473.303 150.237 464.436 159.546 451.911 164.608C473.821 167.957 490.045 144.096 495.743 126.504C501.264 109.458 494.373 67.787 515.8 59.993C515.828 54.27 506.138 48.789 502.218 49.295Z" fill="url(#paint15_linear_2_216)"/>
<path d="M346.279 206.146C326.279 214.813 292.955 232.533 289.615 236.294C276.927 250.584 266.74 268.162 262.094 286.647C251.243 329.821 268.725 369.937 273.793 412.48C276.12 432.015 273.879 452.895 261.535 468.592C270.417 456.946 279.658 446.626 285.61 432.976C291.165 420.239 291.77 403.47 290.278 389.829C288.01 369.09 281.747 348.804 278.606 328.152C274.898 303.774 277.698 277.55 289.127 255.299C291.237 251.193 334.946 215.48 346.279 206.146Z" fill="url(#paint16_linear_2_216)"/>
<path d="M478.946 170.813C479.759 197.27 486.84 230.3 467.594 254.701C456.686 268.531 441.594 279.995 428.29 291.632C406.266 310.898 392.475 336.82 391.464 366.511C390.478 395.462 406.681 429.617 425.612 450.812C406.945 431.479 396.931 418.1 390.113 404.992C380.648 386.795 372.204 366.039 371.597 345.28C370.917 321.996 383.439 304.12 398.755 287.728C415.937 269.339 440.444 259.982 458.585 242.81C466.338 235.471 472.894 220.765 474.279 210.144C476.279 194.813 478.991 190.118 478.946 170.813Z" fill="url(#paint17_linear_2_216)"/>
<path d="M393.612 135.48C381.245 147.283 370.286 158.462 356.143 168.981C330.05 188.387 302.803 206.475 277.76 227.317C229.963 267.095 201.612 312.147 186.533 383.71C182.091 404.794 180.421 425.628 181.614 446.981C182.945 470.815 187.612 490.148 194.733 504.661C180.945 484.815 175.149 471.243 172.3 455.476C169.191 438.274 166.971 421.752 167.763 404.188C169.451 366.733 179.688 326.546 196.065 292.816C210.923 262.216 233.952 236.386 259.363 214.234C276.748 199.079 296.462 186.569 316.304 174.762C328.436 167.543 340.725 160.781 353.519 154.833C368.459 147.885 391.34 142.455 393.612 135.48Z" fill="url(#paint18_linear_2_216)"/>
<path d="M353.612 106.813C334.08 123.751 310.173 131.061 285.01 137.813C265.255 143.114 245.117 146.824 224.615 146.813C203.596 146.802 183.153 146.469 162.397 150.277C117.512 158.512 67.2306 187.264 53.8976 217.264C46.5816 233.725 46.5646 253.594 55.6226 269.882C61.5396 280.522 73.0796 288.382 84.9286 289.478C98.0366 290.69 110.835 280.68 113.476 267.48C115.124 259.246 107.955 250.531 99.8466 254.985C105.506 258.71 103.02 268.468 97.8066 271.543C91.1596 275.463 82.9426 271.585 78.7486 266.155C61.5836 243.936 85.8476 214.948 102.416 201.783C120.699 187.256 144.796 176.365 167.36 170.903C193.28 164.628 221.956 167.015 248.443 167.996C296.497 169.776 342.771 156.677 378.111 122.895C388.302 113.153 404.435 94.152 402.865 78.142C384.268 87.556 366.993 101.921 353.612 106.813Z" fill="url(#paint19_linear_2_216)"/>
<path d="M525.612 62.813C521.188 67.49 520.755 77.054 516.56 82.869C508.013 94.718 495.804 103.094 485.531 113.397C460.18 138.821 432.852 161.63 412.244 191.524C402.935 205.028 398.697 220.181 393.644 235.48C388.206 251.944 383.276 267.244 380.461 284.403C374.505 320.718 365.76 358.879 348.608 391.666C339.923 408.268 327.93 423.12 311.46 432.097C300.949 437.826 290.6 439.265 279.734 443.562C317.272 429.915 328.699 382.436 331.009 347.071C335.672 275.698 342.493 195.027 399.198 143.732C416.07 128.47 437.085 119.896 457.453 110.292C468.599 105.037 480.099 100.575 490.638 94.1611C498.604 89.3151 517.761 81.219 525.612 62.813Z" fill="url(#paint20_linear_2_216)"/>
<path d="M427.171 106.302C412.569 104.858 395.544 119.043 383.839 126.165C367.955 135.83 352.612 145.906 341.441 161.107C314.066 198.359 317.344 250.697 283.917 283.465C269.728 297.375 248.934 309.795 234.502 314.846C223.439 318.718 207.803 322.784 190.707 322.8C204.489 328.686 226.577 324.001 240.602 320.812C265.439 315.165 293.064 300.185 311.834 282.914C336.37 260.339 345.067 229.393 358.406 200.164C375.221 163.316 402.977 118.767 444.489 106.301" fill="url(#paint21_linear_2_216)"/>
<path d="M362.948 67.335C329.828 67.433 306.894 85.97 281.427 104.878C268.227 114.678 253.672 123.705 238.834 130.713C230.255 134.765 213.133 141.442 204.255 138.918C238.312 145.517 271.116 130.573 302.644 120.382C323.822 113.537 341.808 100.353 361.504 90.338C386.501 77.628 407.269 72.084 434.841 70.061C423.189 67.121 408.083 67.302 395.835 67.335C385.009 67.364 361.514 73.411 362.948 67.335Z" fill="url(#paint22_linear_2_216)"/>
<path d="M505.826 88.261C491.645 92.186 503.66 144.08 503.661 155.641C503.663 184.012 491.468 209.812 469.588 228.092C455.137 240.165 442.273 251.116 425.95 260.111C442.038 248.724 454.47 234.784 459.465 215.28C463.196 200.708 463.847 185.123 466.86 170.317C472.66 141.81 480.041 116.774 505.826 88.261Z" fill="url(#paint23_linear_2_216)"/>
<path d="M479.848 64.448C473.319 61.808 462.063 72.87 458.615 77.798C452.621 86.365 451.304 97.659 450.262 107.745C447.43 135.152 448.565 162.027 439.417 188.461C434.761 201.914 426.186 207.42 414.963 214.414C443.933 207.027 459.714 182.804 459.642 154.295C459.604 139.131 460.611 124.866 466.49 110.658C472.001 97.339 483.619 89.392 495.39 82.129C507.178 74.856 513.927 63.269 513.093 48.758C505.789 62.55 491.713 58.323 479.848 64.448Z" fill="url(#paint24_linear_2_216)"/>
<path d="M427.171 65.8921C416.386 65.9281 406.25 67.482 396.105 71.507C384.573 76.082 375.443 84.173 364.426 89.708C348.331 97.794 330.267 107.726 312.493 104.442C320.325 108.491 330.907 107.974 339.577 108.406C354.224 109.135 368.171 108.412 382.381 104.93C402.627 99.9681 423.682 92.0231 437.634 76.0031C444.553 68.0591 452.897 54.367 463.047 50.688C455.8 51.935 447.923 55.8021 441.568 59.4191C437.006 62.0151 432.857 66.4551 427.171 65.8921Z" fill="url(#paint25_linear_2_216)"/>
<path d="M469.746 24.039C459.96 35.219 439.495 41.11 425.044 44.086C399.928 49.258 376.39 45.605 351.411 42.829C337.218 41.252 320.557 40.25 307.629 47.887C320.206 47.677 330.823 48.905 342.963 51.38C356.422 54.124 366.816 61.58 379.512 65.62C406.017 74.054 427.277 64.071 448.432 49.656C458.253 42.964 466.856 36.135 477.534 31.109C473.682 29.141 471.16 26.145 469.746 24.039Z" fill="url(#paint26_linear_2_216)"/>
<path d="M492.837 44.244C482.178 44.327 480.759 59.98 478.343 66.967C474.638 77.682 471.875 87.085 461.863 92.445C486.067 89.791 485.841 64.685 499.803 51.299C497.663 49.2 495.585 47.16 492.837 44.244Z" fill="url(#paint27_linear_2_216)"/>
<path d="M460.279 116.813C451.849 115.8 402.983 136.738 396.264 140.964C384.872 148.128 375.401 155.498 366.279 165.424C350.128 182.999 337.483 203.6 328.946 225.942C324.255 238.22 318.218 250.426 315.941 263.45C313.769 275.877 310.758 292.507 308.28 304.812C302.167 335.162 296.871 361.751 285.645 390.623C276.154 415.034 254.676 441.918 230.456 453.526C242.113 454.33 260.965 434.191 268.982 426.923C282.306 414.843 293.677 400.286 302.134 384.307C315.452 359.143 320.411 331.899 327.565 304.68C336.645 270.13 348.966 238.385 366.632 207.28C375.127 192.323 386.361 178.757 397.465 165.681C403.97 158.02 408.81 150.71 416.708 144.322C419.093 142.392 432.946 128.813 460.279 116.813Z" fill="url(#paint28_linear_2_216)"/>
<path d="M516.946 74.813C505.605 77.903 495.267 89.326 487.947 98.48C476.866 112.336 466.636 127.093 460.765 144.158C454.252 163.09 452.252 182.46 443.279 200.68C434.249 219.014 418.499 233.085 406.779 249.633C399.486 259.931 393.635 272.225 389.614 284.143C387.657 289.944 386.636 295.257 386.115 301.362C385.664 306.648 387.436 311.443 386.948 316.62C391.651 271.265 438.07 245.986 458.425 208.849C467.877 191.604 469.956 173.747 475.113 155.149C477.835 145.333 481.093 134.879 485.578 125.646C490.562 115.386 498.255 108.065 506.295 100.131C509.914 96.559 513.498 93.159 518.131 90.946C520.471 89.828 525.092 89.687 526.946 88.146C529.997 85.611 529.687 84.648 525.954 80.449C523.716 77.932 519.436 74.534 516.946 74.813Z" fill="url(#paint29_linear_2_216)"/>
<path d="M496.946 84.146C495.696 84.24 500.766 84.2471 499.067 84.1311C486.308 86.2241 474.106 96.155 466.128 106.082C429.606 151.528 449.684 209.548 439.795 261.313C436.779 277.103 431.84 294.108 423.952 308.205C417.3 320.093 397.452 340.489 383.799 342.871C399.051 326.648 412.805 308.919 415.717 286.152C420.969 245.091 404.663 203.956 408.781 162.832C410.819 142.485 423.966 123.273 435.667 107.146C442.519 97.702 449.905 89.7801 458.812 82.2971C463.22 78.5941 467.963 73.225 473.612 71.48C481.763 60.908 497.938 57.8611 508.977 51.7141C508.128 59.3381 517.863 64.414 517.612 73.147C517.428 79.536 516.74 79.4061 510.945 80.8481C506.901 81.8541 500.964 83.844 496.946 84.146Z" fill="url(#paint30_linear_2_216)"/>
<path d="M430.779 135.166C388.204 149.598 371.144 168.483 364.719 177.678C356.05 190.084 350.173 205.967 348.679 221.037C345.943 248.627 358.269 274.542 355.67 302.164C354.296 316.768 344.225 325.246 331.799 329.275C350.481 330.857 367.963 317.128 375.644 301.504C383.224 286.085 382.476 268.485 382.432 251.602C382.338 215.712 402.072 159.965 432.221 136.609" fill="url(#paint31_linear_2_216)"/>
<path d="M523.866 68.056C522.504 92.314 499.888 109.643 493.74 132.258C486.616 158.464 497.235 185.522 493.469 212.255C491.076 229.239 487.037 244.504 471.388 253.234C483.995 245.624 479.992 220.73 477.884 208.964C473.651 185.335 469.232 161.75 468.147 137.714C467.127 115.126 477.858 91.738 495.902 77.383C503.067 71.683 512.55 68.796 523.866 68.056Z" fill="url(#paint32_linear_2_216)"/>
<path d="M475.519 28.368C468.269 24.369 454.881 34.323 448.46 38.028C439.242 43.348 430.127 48.499 420.375 52.841C393.105 64.984 364.826 54.848 337.382 64.234C308.216 74.209 293.659 96.938 282.21 124.024C292.844 101.746 319.952 86.549 343.466 81.589C361.377 77.811 376.123 82.274 393.417 85.554C413.289 89.323 431.565 80.43 445.91 66.811C454.308 58.839 462.658 38.743 476.169 38.361C476.63 34.736 474.627 31.755 475.519 28.368Z" fill="url(#paint33_linear_2_216)"/>
<path d="M495.002 40.635C485.098 38.242 473.037 44.354 466.499 52.155C454.493 66.479 446.246 82.624 431.536 94.899C411.996 111.204 392.145 122.441 367.159 127.788C345.236 132.48 321.532 132.189 302.994 146.071C281.323 162.3 276.993 180.161 269.198 204.39C281.559 193.291 290.139 184.082 305.278 176.293C316.255 170.646 327.32 164.901 339.171 161.106C362.26 153.712 384.302 148.575 404.819 135.327C418.296 126.624 426.013 114.068 435.83 101.993C444.154 91.753 453.294 85.4 464.516 78.678C477.94 70.636 486.523 59.141 492.923 44.911C492.576 43.635 492.24 44.753 495.002 40.635Z" fill="url(#paint34_linear_2_216)"/>
<path d="M464.946 24.9801C476.077 16.1511 490.196 21.5631 493.863 18.3131C500.849 16.3711 501.347 20.6821 509.28 21.3131C508.438 21.2461 521.795 26.6971 521.28 26.3131C525.094 29.1561 523.389 28.6561 526.28 29.9381C526.311 29.9521 533.03 31.6881 536.28 32.6881C546.175 35.7331 549.246 35.5591 551.965 49.6351C553.832 59.3011 559.858 67.9261 562.655 77.4381C564.658 84.2501 564.816 91.7631 568.03 98.1881C573.986 110.096 585.753 122.888 594.947 132.48C605.68 143.677 614.287 148.422 614.136 163.892C614.005 177.394 598.947 187.48 594.613 204.48C589.068 235.087 585.047 264.063 572.279 292.813C567.294 304.037 557.955 318.891 550.946 328.813C540.066 344.215 548.98 360.242 556.853 375.701C571.523 404.506 590.28 447.35 602.279 477.48C609.779 496.313 602.453 525.601 603.612 550.813C605.094 583.05 606.391 622.797 612.11 654.716C615.899 675.858 616.223 694.603 634.686 706.748C636.355 707.846 638.097 708.905 639.384 710.434C640.671 711.962 641.442 714.094 640.809 715.989C639.721 719.251 635.456 719.546 632.019 719.655C617.093 720.128 607.279 715.063 602.779 704.563C599.495 696.9 596.946 693.813 590.946 686.813C584.483 679.273 566.317 674.655 572.029 661.063C576.399 650.665 582.89 646.554 582.779 634.313C582.693 624.835 580.93 608.473 578.779 599.313C573.14 575.301 565.9 563.585 564.279 538.813C562.971 518.832 572.831 505.593 564.279 487.313C555.688 468.948 530.245 448.571 518.279 432.313C502.946 411.48 492.279 384.146 484.279 379.48C478.279 378.813 447.656 395.552 438.535 399.71C412.893 411.398 345.227 443.581 318.556 423.639C303.726 412.55 302.697 389.518 298.279 373.189C293.805 356.653 291.522 340.276 286.779 323.814C276.547 288.299 270.318 264.658 240.279 236.314C234.406 230.772 225.814 221.552 220.529 215.439C219.565 214.325 204.104 202.091 204.029 201.689C202.78 194.962 219.26 194.485 223.404 195.939C233.871 199.611 243.313 212.777 257.404 217.314C267.211 220.472 284.345 222.461 290.612 231.814C296.662 240.842 286.953 250.785 288.945 260.814C292.403 278.22 304.832 298.989 313.612 314.147C325.249 334.238 341.52 362.645 339.612 386.814C359.616 386.879 379.609 367.556 395.612 357.481C410.304 348.231 429.938 338.026 437.612 322.148C443.733 309.483 446.393 295.481 457.779 286.815C468.98 278.289 479.804 275.567 492.779 271.44C528.279 260.148 526.186 236.808 523.612 212.148C519.952 177.082 482.498 121.175 508.173 88.7061C510.32 85.9901 518.452 81.6711 515.594 72.6951C514.755 70.0601 514.469 63.4191 513.404 61.3151C510.202 54.9881 503.907 54.2641 500.295 49.5961C497.857 46.4461 504.811 44.1331 500.154 39.9401C497.518 37.5661 491.268 37.9761 488.029 35.9401C478.373 29.8691 477.265 27.3751 464.946 24.9801Z" fill="#06D4F9"/>
<path d="M464.733 22.024C464.733 22.024 469.367 18.913 472.871 17.674C476.375 16.435 480.5 16.447 482.126 16.077C483.752 15.707 486.752 15.591 488.876 16.222C490.999 16.853 491.995 18.356 495.748 17.118C499.501 15.88 507.898 8.90505 510.277 7.41205C512.657 5.91905 514.156 6.04905 515.026 7.67605C515.896 9.30405 516.008 13.554 516.756 14.181C517.504 14.808 518.753 15.312 520.255 14.567C521.757 13.822 522.76 12.95 523.754 14.828C524.748 16.706 524.36 21.205 525.358 21.708C526.356 22.211 528.611 20.718 529.865 19.472C531.119 18.226 532.122 17.229 533.868 18.484C535.614 19.739 535.486 20.739 538.61 21.248C541.734 21.757 546.114 20.021 548.855 22.904C551.596 25.787 550.325 30.521 550.445 32.146C550.565 33.771 551.945 39.479 552.278 51.313C552.405 55.813 531.867 59.978 519.241 60.19C506.615 60.402 471.935 37.296 469.078 31.538C466.221 25.779 464.733 22.024 464.733 22.024Z" fill="#06D4F9"/>
<path d="M530.862 90.23C522.52 91.497 517.391 93.997 499.362 102.73C483.362 110.48 470.862 113.48 461.028 112.063C453.505 110.979 445.28 111.471 429.861 114.48C409.361 118.48 384.611 117.813 378.944 115.147C373.277 112.48 364.444 105.564 360.778 101.564C357.112 97.564 353.528 96.231 351.528 93.647C349.974 91.64 347.861 88.564 346.528 90.23C345.195 91.897 346.361 94.23 350.028 99.23C353.695 104.23 359.33 108.335 357.611 112.313C356.153 115.688 348.494 118.584 341.826 118.455C335.818 118.338 329.165 118.059 320.78 119.021C312.395 119.983 309.453 120.519 309.75 123.202C309.942 124.932 314.438 124.814 324.111 124.814C334.278 124.814 343.611 122.481 343.736 126.731C343.785 128.397 327.979 130.848 321.021 132.683C314.063 134.518 307.119 136.895 308.295 138.992C309.469 141.086 316.613 139.422 322.535 138.398C329.259 137.235 334.021 135.953 336.346 135.564C338.671 135.175 344.112 133.314 344.112 135.981C344.112 138.648 333.029 143.398 329.945 145.398C326.972 147.326 318.48 151.043 318.945 153.648C319.57 157.148 328.612 152.481 334.112 149.356C339.994 146.014 345.213 142.609 347.779 144.564C350.404 146.564 345.974 149.631 343.154 152.564C340.029 155.814 334.868 158.76 334.529 161.814C334.279 164.064 337.237 163.772 340.904 161.439C344.571 159.106 346.654 157.564 349.904 155.064C353.085 152.617 356.321 149.397 360.654 147.064C364.987 144.731 372.654 140.939 376.154 138.939C378.644 137.516 385.696 134.897 390.362 135.231C395.029 135.564 422.424 136.318 432.362 137.481C455.862 140.231 467.053 135.072 476.612 135.731C483.862 136.231 523.314 133.527 538.279 134.314C557.279 135.314 563.279 114.314 557.779 103.814C552.827 94.36 546.079 87.918 530.862 90.23Z" fill="#06D4F9"/>
<path d="M1381.04 315.781C1366.49 326.697 1351.2 334.702 1335.19 339.796C1319.55 344.527 1303.9 345.8 1288.26 343.617C1272.61 341.434 1259.15 334.702 1247.87 323.422C1237.68 355.807 1230.76 387.827 1227.13 419.484C1225.67 425.306 1223.12 430.582 1219.48 435.312C1212.93 454.597 1198.56 467.514 1176.37 474.064C1154.53 480.25 1134.16 479.158 1115.24 470.789C1106.5 466.787 1099.23 460.965 1093.4 453.323C1087.58 445.682 1084.67 436.404 1084.67 425.487C1109.78 338.523 1133.98 267.205 1157.26 211.533C1162.36 199.889 1166.36 190.428 1169.27 183.151C1172.55 175.874 1175.46 169.688 1178 164.594C1180.55 159.5 1182.73 155.133 1184.55 151.494C1186.74 147.492 1189.28 143.125 1192.19 138.395C1198.74 127.479 1206.2 114.744 1214.57 100.189C1223.3 85.2703 1230.58 74.1723 1236.4 66.895C1242.59 59.6176 1248.96 53.4318 1255.51 48.3376C1262.42 42.8796 1269.88 37.7855 1277.89 33.0552C1286.25 28.3249 1296.62 22.1391 1309 14.4979C1321.37 6.85663 1334.47 2.30829 1348.29 0.85283C1362.48 -0.966533 1375.95 0.125073 1388.68 4.12764C1415.61 12.4966 1435.44 31.2358 1448.18 60.3453C1459.09 87.2716 1460.91 123.477 1453.63 168.96C1442.35 238.459 1418.16 287.399 1381.04 315.781ZM1266.97 267.205C1296.81 260.655 1317.55 241.188 1329.19 208.804C1339.02 181.514 1341.02 150.585 1335.19 116.017C1326.83 130.208 1319.18 144.945 1312.27 160.227C1305.72 175.51 1299.72 189.155 1294.26 201.162C1282.25 228.089 1273.15 250.103 1266.97 267.205Z" fill="url(#paint35_linear_2_216)"/>
<path d="M1131.51 63.62C1118.77 103.282 1106.95 139.123 1096.03 171.143C1085.48 203.164 1075.65 232.637 1066.56 259.563C1057.82 286.489 1049.64 311.414 1042 334.338C1034.35 356.898 1027.26 378.548 1020.71 399.289C1017.07 423.304 1005.25 440.224 985.232 450.048C973.589 455.506 959.762 458.235 943.751 458.235C927.741 458.235 915.734 456.416 907.728 452.777C899.723 449.503 894.629 444.59 892.446 438.041C889.899 431.491 889.899 423.668 892.446 414.571C894.629 405.111 898.632 392.375 904.454 376.365C910.276 359.991 917.553 337.977 926.286 310.323C935.382 282.669 944.843 254.651 954.667 226.269C979.047 155.315 998.332 106.193 1012.52 78.9025C1017.98 68.7142 1023.44 61.9826 1028.9 58.7078C1034.35 55.0691 1039.63 52.522 1044.72 51.0665C1049.82 49.2472 1054.55 47.2459 1058.92 45.0627C1063.28 42.8795 1067.1 37.4215 1070.38 28.6886C1074.02 19.9558 1080.38 13.9519 1089.48 10.6771C1098.94 7.40231 1107.67 7.22038 1115.68 10.1313C1124.05 12.6784 1130.23 18.5003 1134.24 27.597C1138.6 36.3299 1137.69 48.3375 1131.51 63.62Z" fill="url(#paint36_linear_2_216)"/>
<path d="M662.855 414.571L659.034 61.9827C659.034 53.2498 662.491 45.7905 669.404 39.6048C676.682 33.0551 684.869 28.5068 693.966 25.9597C703.062 23.4126 711.613 23.0487 719.618 24.8681C727.623 26.6874 732.718 31.4177 734.901 39.059C741.814 52.886 746.545 71.989 749.092 96.3682C753.822 141.852 756.187 181.15 756.187 214.262C759.826 220.084 764.374 222.813 769.832 222.449C785.478 184.243 802.762 147.492 821.683 112.197C840.605 76.9013 852.794 54.3414 858.252 44.517C863.71 34.3287 870.26 27.2332 877.901 23.2307C885.542 19.2281 893.729 16.681 902.462 15.5894C921.383 13.4062 939.213 16.681 955.951 25.4139C968.686 29.7803 976.146 37.2396 978.329 47.7918C986.698 64.5297 981.058 83.8148 961.409 105.647C938.485 142.034 915.38 182.241 892.092 226.269C847.7 311.051 819.5 363.266 807.493 382.915C795.485 402.564 786.752 416.573 781.294 424.942C775.836 432.947 769.65 439.678 762.737 445.136C750.365 454.961 735.447 458.963 717.981 457.144C687.416 456.052 669.586 446.41 664.492 428.216C663.401 423.122 662.855 418.574 662.855 414.571Z" fill="url(#paint37_linear_2_216)"/>
<path d="M690.764 671.699C684.418 669.807 680.132 667.97 677.905 666.188C675.679 664.518 674.565 662.18 674.565 659.174C674.565 655.834 675.345 651.158 676.903 645.146C678.462 639.023 680.466 632.232 682.915 624.772C685.476 617.313 688.371 609.52 691.599 601.392C694.828 593.265 698.112 585.472 701.452 578.012C704.792 570.553 708.021 563.762 711.138 557.638C714.367 551.404 717.206 546.561 719.655 543.109L718.486 536.095C720.045 536.095 722.216 536.485 724.999 537.264C727.783 538.044 730.566 538.99 733.349 540.103C736.244 541.217 738.749 542.386 740.864 543.61C743.091 544.724 744.316 545.67 744.538 546.449C743.982 549.121 743.536 553.185 743.202 558.64C742.868 563.984 742.701 569.718 742.701 575.841C742.701 587.977 743.147 599.889 744.037 611.579C745.039 623.158 747.266 634.959 750.717 646.983C752.499 638.077 754.391 629.226 756.395 620.43C758.511 611.524 760.682 603.062 762.908 595.046C765.135 586.919 767.362 579.404 769.588 572.501C771.815 565.599 773.93 559.587 775.934 554.465C778.05 549.233 779.998 545.169 781.779 542.274C783.561 539.268 785.175 537.654 786.622 537.431C787.847 537.654 789.183 538.155 790.63 538.934C792.078 539.602 793.469 540.437 794.805 541.439C796.141 542.441 797.366 543.555 798.479 544.779C799.593 546.004 800.483 547.229 801.151 548.453C797.589 549.901 794.026 553.296 790.463 558.64C787.012 563.984 783.672 570.497 780.443 578.179C777.326 585.75 774.376 593.989 771.592 602.895C768.92 611.802 766.527 620.597 764.411 629.281C762.407 637.854 760.793 645.814 759.568 653.162C758.455 660.51 757.843 666.411 757.731 670.864C757.731 671.087 757.787 671.254 757.898 671.365C757.564 671.477 757.175 671.532 756.729 671.532C756.395 671.532 756.061 671.532 755.727 671.532C750.606 671.532 746.041 670.864 742.033 669.528C738.137 668.304 735.576 666.522 734.351 664.184C732.013 654.832 730.065 645.814 728.506 637.13C726.948 628.446 725.612 619.762 724.498 611.078C723.496 602.394 722.661 593.655 721.993 584.859C721.437 575.953 720.991 566.656 720.657 556.97C718.542 560.31 716.315 564.708 713.977 570.163C711.639 575.507 709.357 581.408 707.13 587.865C704.904 594.323 702.733 601.114 700.617 608.239C698.613 615.365 696.832 622.323 695.273 629.114C693.715 635.906 692.49 642.363 691.599 648.486C690.709 654.498 690.263 659.731 690.263 664.184C690.263 666.522 690.263 668.192 690.263 669.194C690.375 670.196 690.542 671.031 690.764 671.699ZM785.809 647.818C785.809 646.816 785.865 645.592 785.976 644.144C786.199 642.586 786.533 640.582 786.978 638.132C787.424 635.572 787.98 632.51 788.648 628.947C789.428 625.385 790.374 621.098 791.487 616.088C791.71 614.975 792.211 613.194 792.99 610.744C793.77 608.295 794.772 605.734 795.996 603.062C797.332 600.279 798.891 597.607 800.672 595.046C802.565 592.486 804.792 590.593 807.352 589.368C809.245 589.814 811.75 590.983 814.867 592.875C817.985 594.657 820.657 597.162 822.883 600.39C820.323 603.285 818.152 606.18 816.37 609.074C814.7 611.969 813.142 614.975 811.694 618.092C810.358 621.21 809.078 624.438 807.853 627.778C806.74 631.118 805.46 634.625 804.012 638.299C802.788 641.417 801.674 644.645 800.672 647.985C799.67 651.214 799.114 654.053 799.002 656.502C799.002 658.506 798.947 659.898 798.835 660.677C798.835 661.568 798.557 662.013 798 662.013C797.555 662.013 796.664 661.735 795.328 661.178C793.992 660.622 792.601 659.787 791.153 658.673C789.817 657.449 788.593 655.946 787.479 654.164C786.366 652.383 785.809 650.268 785.809 647.818ZM817.706 575.34C817.706 574.672 817.873 573.67 818.207 572.334C817.651 571.778 817.15 570.943 816.704 569.829C816.37 568.716 816.203 567.714 816.203 566.823C816.203 565.821 816.315 564.485 816.537 562.815C816.871 561.034 817.261 559.141 817.706 557.137C818.152 555.133 818.708 553.074 819.376 550.958C820.044 548.732 820.712 546.728 821.38 544.946C822.716 544.946 824.331 545.336 826.223 546.115C828.227 546.783 830.231 547.73 832.235 548.954C834.239 550.068 836.076 551.348 837.746 552.795C839.416 554.131 840.697 555.412 841.587 556.636C840.363 557.861 838.748 559.587 836.744 561.813C834.74 563.929 832.792 566.211 830.899 568.66C829.007 570.998 827.281 573.225 825.722 575.34C824.164 577.456 823.162 578.959 822.716 579.849C821.38 579.627 820.211 579.07 819.209 578.179C818.207 577.177 817.706 576.231 817.706 575.34ZM791.375 708.773C791.375 708.105 791.598 707.493 792.043 706.936C792.488 706.38 792.989 705.823 793.546 705.266C794.882 706.491 796.051 707.437 797.053 708.105C797.944 708.773 798.834 709.33 799.725 709.775C800.504 710.221 801.339 710.499 802.23 710.61C803.121 710.722 804.178 710.777 805.403 710.777C811.192 710.777 816.703 709.219 821.936 706.101C827.169 703.095 832.067 698.698 836.632 692.908C841.308 687.119 845.539 680.049 849.324 671.699C853.109 663.349 856.449 653.886 859.344 643.309C858.008 644.645 856.338 646.148 854.334 647.818C852.441 649.377 850.437 650.88 848.322 652.327C846.207 653.775 844.091 655.111 841.976 656.335C839.972 657.56 838.246 658.451 836.799 659.007C834.906 658.673 833.125 657.894 831.455 656.669C829.896 655.333 828.505 653.719 827.28 651.826C826.055 649.934 825.109 647.818 824.441 645.48C823.773 643.031 823.439 640.47 823.439 637.798C823.439 633.456 824.218 629.003 825.777 624.438C827.447 619.874 829.618 615.42 832.29 611.078C834.962 606.625 838.079 602.45 841.642 598.553C845.316 594.657 849.157 591.261 853.165 588.366C857.284 585.472 861.404 583.189 865.523 581.519C869.754 579.738 873.873 578.847 877.881 578.847C881.778 578.847 884.672 579.682 886.565 581.352C888.569 582.911 890.016 585.639 890.907 589.535C889.682 588.867 888.124 588.533 886.231 588.533C883.559 588.533 880.442 589.591 876.879 591.706C873.428 593.822 869.865 596.605 866.191 600.056C862.628 603.396 859.066 607.293 855.503 611.746C851.94 616.088 848.767 620.542 845.984 625.106C843.312 629.671 841.085 634.124 839.304 638.466C837.634 642.808 836.799 646.705 836.799 650.156C836.799 650.936 836.855 651.437 836.966 651.659C837.077 651.771 837.244 651.826 837.467 651.826C838.469 651.826 839.805 651.27 841.475 650.156C843.256 649.043 845.205 647.651 847.32 645.981C849.547 644.2 851.829 642.196 854.167 639.969C856.505 637.631 858.732 635.293 860.847 632.955C865.634 627.611 869.976 621.655 873.873 615.086C877.881 608.406 881.054 601.949 883.392 595.714C886.398 595.937 889.07 596.438 891.408 597.217C893.746 597.997 895.36 598.832 896.251 599.722C892.466 608.406 889.404 615.699 887.066 621.599C884.839 627.5 882.891 632.733 881.221 637.297C878.215 645.313 875.376 652.606 872.704 659.174C870.143 665.854 867.471 671.978 864.688 677.544C862.016 683.222 859.066 688.455 855.837 693.242C852.72 698.141 849.157 702.817 845.149 707.27C843.256 709.386 841.085 711.223 838.636 712.781C836.298 714.451 833.849 715.843 831.288 716.956C828.839 718.07 826.389 718.905 823.94 719.461C821.602 720.018 819.431 720.296 817.427 720.296C814.755 720.296 812.027 719.962 809.244 719.294C806.461 718.738 803.9 717.903 801.562 716.789C799.113 715.787 796.997 714.563 795.216 713.115C793.435 711.779 792.154 710.332 791.375 708.773ZM900.125 656.168C900.125 652.272 900.514 647.707 901.294 642.474C902.073 637.13 903.186 631.452 904.634 625.44C906.192 619.428 907.974 613.138 909.978 606.569C912.093 600.001 914.431 593.432 916.992 586.863C919.218 580.963 921.779 575.006 924.674 568.994C927.68 562.982 930.908 557.082 934.36 551.292C937.811 545.503 941.374 539.992 945.048 534.759C948.833 529.527 952.618 524.739 956.404 520.397C958.185 520.397 960.078 520.62 962.082 521.065C964.197 521.511 966.201 522.123 968.094 522.902C970.098 523.57 971.879 524.405 973.438 525.407C975.108 526.409 976.444 527.411 977.446 528.413C969.096 536.986 961.581 545.67 954.901 554.465C948.221 563.149 942.932 571.332 939.036 579.014C936.92 583.245 934.972 587.197 933.191 590.871C931.521 594.545 929.962 598.219 928.515 601.893C927.067 605.456 925.731 609.074 924.507 612.748C923.393 616.311 922.336 620.096 921.334 624.104C942.71 596.828 958.575 583.189 968.929 583.189C971.823 583.189 974.941 584.136 978.281 586.028C981.621 587.921 984.571 590.482 987.132 593.71C983.68 597.496 980.118 602.06 976.444 607.404C972.77 612.748 969.374 618.148 966.257 623.603C963.251 628.947 960.746 633.957 958.742 638.633C956.849 643.198 955.903 646.594 955.903 648.82C955.903 649.934 956.07 650.713 956.404 651.158C956.738 651.492 957.461 651.659 958.575 651.659C960.245 651.659 961.581 651.437 962.583 650.991C963.585 650.546 964.197 650.323 964.42 650.323C964.976 651.214 965.31 651.826 965.422 652.16C965.533 652.494 965.589 652.773 965.589 652.995C965.589 653.441 964.921 654.109 963.585 654.999C962.249 655.779 960.634 656.614 958.742 657.504C956.96 658.284 955.179 659.007 953.398 659.675C951.616 660.343 950.28 660.677 949.39 660.677C948.276 660.677 947.163 660.343 946.05 659.675C944.936 659.119 943.934 658.339 943.044 657.337C942.264 656.335 941.596 655.222 941.04 653.997C940.594 652.773 940.372 651.492 940.372 650.156C940.372 648.486 940.817 646.037 941.708 642.808C942.71 639.468 944.046 635.627 945.716 631.285C947.386 626.832 949.39 621.989 951.728 616.756C954.066 611.524 956.571 606.18 959.243 600.724C959.243 600.279 959.02 600.056 958.575 600.056C958.241 600.056 957.35 600.502 955.903 601.392C954.567 602.283 953.286 603.174 952.062 604.064C948.054 607.07 943.99 610.8 939.871 615.253C935.863 619.595 931.91 624.383 928.014 629.615C924.228 634.848 920.61 640.415 917.159 646.315C913.819 652.105 910.924 657.95 908.475 663.85C908.141 664.63 907.64 665.353 906.972 666.021C906.304 666.689 905.747 667.023 905.302 667.023C904.968 667.023 904.467 666.634 903.799 665.854C903.242 665.075 902.685 664.073 902.129 662.848C901.683 661.735 901.238 660.566 900.793 659.341C900.347 658.117 900.125 657.059 900.125 656.168ZM996.417 595.046C995.861 594.378 995.36 592.987 994.914 590.871C994.469 588.645 994.246 586.752 994.246 585.193C997.141 585.416 999.924 585.639 1002.6 585.861C1005.27 585.973 1007.72 586.084 1009.94 586.195C1011.61 582.855 1013.4 579.571 1015.29 576.342C1017.29 573.002 1019.18 569.996 1020.97 567.324C1022.86 564.541 1024.58 562.203 1026.14 560.31C1027.81 558.418 1029.09 557.193 1029.98 556.636C1031.1 556.636 1032.49 556.859 1034.16 557.304C1035.94 557.638 1037.72 558.139 1039.5 558.807C1041.28 559.364 1042.9 559.976 1044.35 560.644C1045.79 561.312 1046.8 561.98 1047.35 562.648C1044.01 566.879 1041.12 570.831 1038.67 574.505C1036.33 578.068 1033.77 582.187 1030.99 586.863C1033.21 586.863 1035.44 586.808 1037.67 586.696C1040 586.585 1042.34 586.418 1044.68 586.195C1045.24 586.752 1045.68 587.476 1046.02 588.366C1046.35 589.146 1046.52 589.981 1046.52 590.871C1041.06 592.875 1034.44 593.989 1026.64 594.211C1023.86 599.555 1021.36 604.899 1019.13 610.243C1017.01 615.476 1015.18 620.542 1013.62 625.44C1012.17 630.339 1011 634.959 1010.11 639.301C1009.33 643.643 1008.94 647.54 1008.94 650.991C1008.94 655.89 1010.78 658.618 1014.45 659.174C1017.79 658.729 1020.97 657.894 1023.97 656.669C1026.98 655.445 1029.65 653.886 1031.99 651.993C1032.66 652.995 1033.05 653.83 1033.16 654.498C1032.49 655.5 1031.32 656.669 1029.65 658.005C1028.09 659.341 1026.37 660.622 1024.47 661.846C1022.58 663.182 1020.74 664.296 1018.96 665.186C1017.18 666.077 1015.84 666.578 1014.95 666.689C1012.17 666.578 1009.39 665.966 1006.6 664.852C1003.82 663.739 1001.26 662.347 998.922 660.677C996.696 659.007 994.859 657.17 993.411 655.166C991.964 653.051 991.24 650.991 991.24 648.987C991.24 646.315 991.574 642.975 992.242 638.967C993.022 634.848 994.079 630.395 995.415 625.607C996.751 620.82 998.31 615.81 1000.09 610.577C1001.87 605.345 1003.82 600.168 1005.94 595.046H996.417ZM1200.8 566.99C1200.8 573.893 1198.91 580.072 1195.12 585.527C1191.34 590.871 1186.16 595.325 1179.59 598.887C1183.82 601.782 1187.16 605.345 1189.61 609.575C1192.17 613.695 1193.45 618.259 1193.45 623.269C1193.45 629.281 1191.61 635.238 1187.94 641.138C1184.38 646.928 1179.59 652.105 1173.58 656.669C1167.57 661.123 1160.72 664.741 1153.04 667.524C1145.36 670.308 1137.51 671.699 1129.49 671.699C1120.81 671.699 1113.18 670.029 1106.61 666.689C1100.15 663.461 1095.09 658.84 1091.41 652.828C1092.53 649.488 1093.97 645.369 1095.76 640.47C1097.65 635.46 1099.71 630.228 1101.94 624.772C1104.16 619.206 1106.39 613.695 1108.62 608.239C1110.95 602.784 1113.12 597.885 1115.13 593.543C1119.36 584.08 1123.14 576.231 1126.48 569.996C1129.82 563.762 1132.89 558.807 1135.67 555.133C1129.55 557.026 1123.98 559.197 1118.97 561.646C1113.96 563.984 1110.29 566.267 1107.95 568.493C1106.95 567.825 1105.89 566.823 1104.77 565.487C1103.77 564.151 1102.77 562.704 1101.77 561.145C1100.88 559.475 1100.1 557.805 1099.43 556.135C1098.87 554.465 1098.54 552.962 1098.43 551.626C1101.32 549.622 1105.05 547.73 1109.62 545.948C1114.29 544.056 1119.36 542.441 1124.81 541.105C1130.27 539.769 1135.84 538.712 1141.51 537.932C1147.3 537.153 1152.81 536.763 1158.05 536.763C1171.41 536.763 1181.87 539.435 1189.44 544.779C1197.01 550.123 1200.8 557.527 1200.8 566.99ZM1137.17 606.903C1135.06 605.901 1133.11 604.398 1131.33 602.394C1128.77 608.072 1126.32 613.639 1123.98 619.094C1121.75 624.55 1119.75 629.615 1117.97 634.291C1116.19 638.967 1114.74 643.031 1113.63 646.482C1112.51 649.934 1111.9 652.439 1111.79 653.997C1113.35 654.888 1115.18 655.556 1117.3 656.001C1119.53 656.447 1122.25 656.669 1125.48 656.669C1133.05 656.669 1140.29 655.612 1147.19 653.496C1154.09 651.381 1160.16 648.542 1165.4 644.979C1170.63 641.305 1174.8 637.13 1177.92 632.454C1181.04 627.778 1182.6 622.88 1182.6 617.758C1182.6 610.41 1179.42 605.122 1173.08 601.893C1164.39 605.456 1154.6 607.237 1143.69 607.237C1142.13 607.237 1140.9 607.237 1140.01 607.237C1139.23 607.237 1138.29 607.126 1137.17 606.903ZM1169.57 548.954C1167.23 548.954 1164.73 549.121 1162.06 549.455C1159.49 549.678 1156.77 550.068 1153.87 550.624C1154.32 551.07 1154.65 551.571 1154.87 552.127C1155.21 552.573 1155.49 553.074 1155.71 553.63C1154.71 554.966 1153.48 556.915 1152.04 559.475C1150.59 562.036 1148.97 565.042 1147.19 568.493C1145.41 571.833 1143.52 575.563 1141.51 579.682C1139.62 583.802 1137.67 588.032 1135.67 592.374C1137.56 591.929 1139.84 591.595 1142.52 591.372C1145.3 591.038 1148.03 590.871 1150.7 590.871C1152.15 590.871 1153.54 590.927 1154.87 591.038C1156.32 591.15 1157.71 591.317 1159.05 591.539C1164.39 590.649 1169.18 589.368 1173.41 587.698C1177.75 585.917 1181.48 583.913 1184.6 581.686C1187.72 579.348 1190.11 576.788 1191.78 574.004C1193.45 571.221 1194.29 568.271 1194.29 565.153C1194.29 559.809 1192.17 555.801 1187.94 553.129C1183.71 550.346 1177.59 548.954 1169.57 548.954ZM1264.07 589.869C1263.62 596.772 1262.4 602.728 1260.4 607.738C1258.39 612.637 1255.5 616.979 1251.71 620.764C1248.04 624.438 1243.53 627.778 1238.18 630.784C1232.84 633.79 1226.61 636.685 1219.48 639.468C1219.48 640.136 1219.43 640.86 1219.31 641.639C1219.31 642.307 1219.31 643.031 1219.31 643.81C1219.31 645.258 1219.43 646.761 1219.65 648.319C1219.87 649.878 1220.26 651.325 1220.82 652.661C1221.37 653.997 1222.15 655.111 1223.15 656.001C1224.16 656.781 1225.44 657.17 1227 657.17C1230 657.17 1232.95 656.502 1235.85 655.166C1238.74 653.83 1241.47 652.216 1244.03 650.323C1246.7 648.319 1249.15 646.204 1251.38 643.977C1253.72 641.639 1255.78 639.524 1257.56 637.631C1258.67 638.633 1259.62 639.58 1260.4 640.47C1255.39 647.15 1249.87 652.717 1243.86 657.17C1237.96 661.512 1232.34 664.296 1227 665.52C1219.31 664.63 1213.3 661.846 1208.96 657.17C1204.73 652.383 1202.61 646.649 1202.61 639.969C1202.61 635.405 1203.23 630.784 1204.45 626.108C1205.79 621.321 1207.57 616.756 1209.79 612.414C1212.13 607.961 1214.8 603.786 1217.81 599.889C1220.93 595.993 1224.21 592.597 1227.66 589.702C1231.23 586.808 1234.84 584.525 1238.52 582.855C1242.3 581.185 1246.03 580.35 1249.71 580.35C1254.83 581.018 1259.62 584.191 1264.07 589.869ZM1252.55 595.38C1249.54 595.826 1246.42 597.05 1243.19 599.054C1239.97 601.058 1236.9 603.73 1234.01 607.07C1231.23 610.41 1228.67 614.307 1226.33 618.76C1223.99 623.214 1222.15 628.001 1220.82 633.122C1229.72 628.669 1237.13 623.214 1243.03 616.756C1248.93 610.188 1252.1 603.062 1252.55 595.38ZM1329.42 591.539C1330.53 591.539 1331.81 591.762 1333.26 592.207C1334.82 592.541 1336.21 593.042 1337.43 593.71C1338.66 594.267 1339.66 594.879 1340.44 595.547C1341.33 596.215 1341.77 596.828 1341.77 597.384C1339.55 602.06 1337.49 606.792 1335.6 611.579C1333.7 616.255 1332.09 620.764 1330.75 625.106C1329.42 629.448 1328.36 633.512 1327.58 637.297C1326.91 641.083 1326.58 644.367 1326.58 647.15C1326.58 650.268 1326.91 652.884 1327.58 654.999C1328.25 657.003 1329.36 658.451 1330.92 659.341C1329.58 660.232 1327.86 660.956 1325.74 661.512C1323.63 662.069 1321.73 662.347 1320.06 662.347C1314.05 662.347 1311.05 658.228 1311.05 649.989C1311.05 643.643 1313.16 634.959 1317.39 623.937C1315.17 629.059 1312.61 633.902 1309.71 638.466C1306.82 642.92 1303.87 646.872 1300.86 650.323C1297.85 653.775 1294.79 656.614 1291.67 658.84C1288.67 660.956 1285.89 662.236 1283.32 662.681C1279.21 662.459 1275.87 660.51 1273.3 656.836C1270.74 653.051 1269.46 648.264 1269.46 642.474C1269.46 636.24 1270.8 629.671 1273.47 622.768C1276.14 615.866 1279.54 609.464 1283.66 603.563C1287.89 597.663 1292.45 592.764 1297.35 588.867C1302.25 584.859 1306.98 582.744 1311.55 582.521C1312.66 582.855 1313.89 583.523 1315.22 584.525C1316.67 585.527 1318 586.696 1319.23 588.032C1320.57 589.368 1321.68 590.76 1322.57 592.207C1323.46 593.543 1323.96 594.712 1324.07 595.714C1319.62 596.382 1315 598.553 1310.21 602.227C1305.54 605.901 1301.25 610.355 1297.35 615.587C1293.57 620.709 1290.45 626.22 1288 632.12C1285.55 638.021 1284.33 643.532 1284.33 648.653C1284.33 650.769 1285.11 652.105 1286.66 652.661C1289.89 651.993 1293.62 649.266 1297.85 644.478C1302.08 639.58 1307.21 632.065 1313.22 621.933C1314.33 619.929 1315.56 617.703 1316.89 615.253C1318.34 612.804 1319.79 610.243 1321.23 607.571C1322.68 604.899 1324.07 602.227 1325.41 599.555C1326.86 596.772 1328.19 594.1 1329.42 591.539ZM1395.02 655.333C1392.9 653.552 1391.45 651.325 1390.68 648.653C1390.01 645.981 1389.67 643.699 1389.67 641.806C1389.67 639.468 1389.95 637.464 1390.51 635.794C1390.06 635.794 1389.06 636.685 1387.5 638.466C1385.94 640.248 1384.22 642.363 1382.33 644.812C1380.54 647.262 1378.76 649.655 1376.98 651.993C1375.2 654.331 1373.86 656.057 1372.97 657.17C1371.53 658.729 1370.13 659.954 1368.8 660.844C1367.57 661.735 1366.57 662.236 1365.79 662.347C1364.01 662.236 1362.12 661.846 1360.11 661.178C1358.22 660.622 1356.38 659.787 1354.6 658.673C1352.93 657.56 1351.43 656.224 1350.09 654.665C1348.87 653.107 1348.03 651.325 1347.59 649.321C1347.59 646.204 1347.65 643.643 1347.76 641.639C1347.98 639.635 1348.37 637.464 1348.93 635.126C1349.93 630.896 1351.37 626.108 1353.27 620.764C1355.27 615.42 1357.55 610.188 1360.11 605.066C1362.68 599.834 1365.51 594.991 1368.63 590.537C1371.86 585.973 1375.26 582.41 1378.82 579.849C1379.82 579.849 1380.99 579.961 1382.33 580.183C1383.66 580.295 1385 580.573 1386.33 581.018C1387.78 581.464 1389.12 582.02 1390.34 582.688C1391.68 583.245 1392.79 584.024 1393.68 585.026C1392.68 586.14 1390.12 589.869 1386 596.215C1381.99 602.561 1377.48 611.691 1372.47 623.603C1371.92 624.828 1371.25 626.609 1370.47 628.947C1369.69 631.285 1368.91 633.735 1368.13 636.295C1367.35 638.856 1366.68 641.361 1366.13 643.81C1365.68 646.26 1365.46 648.208 1365.46 649.655C1365.46 650.546 1365.57 651.214 1365.79 651.659C1366.13 652.105 1366.4 652.439 1366.63 652.661C1368.3 651.993 1370.41 650.156 1372.97 647.15C1375.53 644.144 1379.1 639.524 1383.66 633.289C1384.77 631.731 1386.06 629.949 1387.5 627.945C1389.06 625.941 1390.62 623.826 1392.18 621.599C1393.74 619.261 1395.18 616.868 1396.52 614.418C1397.97 611.969 1399.14 609.52 1400.03 607.07C1400.47 605.734 1401.03 604.176 1401.7 602.394C1402.48 600.502 1403.37 598.553 1404.37 596.549C1405.48 594.545 1406.71 592.541 1408.04 590.537C1409.49 588.422 1411.16 586.474 1413.05 584.692C1414.5 584.692 1416.06 584.859 1417.73 585.193C1419.4 585.527 1420.96 585.973 1422.41 586.529C1423.96 586.975 1425.3 587.531 1426.41 588.199C1427.53 588.756 1428.36 589.368 1428.92 590.036C1426.91 594.935 1424.69 599.778 1422.24 604.565C1419.79 609.353 1417.51 614.084 1415.39 618.76C1413.28 623.325 1411.49 627.89 1410.05 632.454C1408.6 637.019 1407.88 641.472 1407.88 645.814C1407.88 648.152 1408.04 650.212 1408.38 651.993C1408.82 653.663 1409.27 655.111 1409.71 656.335C1410.16 657.449 1410.55 658.395 1410.88 659.174C1411.33 659.954 1411.55 660.622 1411.55 661.178C1411.55 661.29 1411.44 661.457 1411.22 661.679C1411.11 661.791 1410.99 661.846 1410.88 661.846C1410.1 661.846 1409.1 661.679 1407.88 661.345C1406.65 661.011 1405.26 660.51 1403.7 659.842C1402.25 659.286 1400.75 658.618 1399.19 657.838C1397.75 657.059 1396.35 656.224 1395.02 655.333ZM1441.32 595.046C1440.76 594.378 1440.26 592.987 1439.81 590.871C1439.37 588.645 1439.14 586.752 1439.14 585.193C1442.04 585.416 1444.82 585.639 1447.49 585.861C1450.17 585.973 1452.62 586.084 1454.84 586.195C1456.51 582.855 1458.29 579.571 1460.19 576.342C1462.19 573.002 1464.08 569.996 1465.86 567.324C1467.76 564.541 1469.48 562.203 1471.04 560.31C1472.71 558.418 1473.99 557.193 1474.88 556.636C1476 556.636 1477.39 556.859 1479.06 557.304C1480.84 557.638 1482.62 558.139 1484.4 558.807C1486.18 559.364 1487.8 559.976 1489.24 560.644C1490.69 561.312 1491.69 561.98 1492.25 562.648C1488.91 566.879 1486.02 570.831 1483.57 574.505C1481.23 578.068 1478.67 582.187 1475.88 586.863C1478.11 586.863 1480.34 586.808 1482.56 586.696C1484.9 586.585 1487.24 586.418 1489.58 586.195C1490.14 586.752 1490.58 587.476 1490.91 588.366C1491.25 589.146 1491.42 589.981 1491.42 590.871C1485.96 592.875 1479.34 593.989 1471.54 594.211C1468.76 599.555 1466.25 604.899 1464.03 610.243C1461.91 615.476 1460.08 620.542 1458.52 625.44C1457.07 630.339 1455.9 634.959 1455.01 639.301C1454.23 643.643 1453.84 647.54 1453.84 650.991C1453.84 655.89 1455.68 658.618 1459.35 659.174C1462.69 658.729 1465.86 657.894 1468.87 656.669C1471.88 655.445 1474.55 653.886 1476.89 651.993C1477.55 652.995 1477.94 653.83 1478.06 654.498C1477.39 655.5 1476.22 656.669 1474.55 658.005C1472.99 659.341 1471.26 660.622 1469.37 661.846C1467.48 663.182 1465.64 664.296 1463.86 665.186C1462.08 666.077 1460.74 666.578 1459.85 666.689C1457.07 666.578 1454.29 665.966 1451.5 664.852C1448.72 663.739 1446.16 662.347 1443.82 660.677C1441.59 659.007 1439.76 657.17 1438.31 655.166C1436.86 653.051 1436.14 650.991 1436.14 648.987C1436.14 646.315 1436.47 642.975 1437.14 638.967C1437.92 634.848 1438.98 630.395 1440.31 625.607C1441.65 620.82 1443.21 615.81 1444.99 610.577C1446.77 605.345 1448.72 600.168 1450.83 595.046H1441.32ZM1490.34 647.818C1490.34 646.816 1490.4 645.592 1490.51 644.144C1490.73 642.586 1491.06 640.582 1491.51 638.132C1491.95 635.572 1492.51 632.51 1493.18 628.947C1493.96 625.385 1494.91 621.098 1496.02 616.088C1496.24 614.975 1496.74 613.194 1497.52 610.744C1498.3 608.295 1499.3 605.734 1500.53 603.062C1501.86 600.279 1503.42 597.607 1505.2 595.046C1507.1 592.486 1509.32 590.593 1511.88 589.368C1513.78 589.814 1516.28 590.983 1519.4 592.875C1522.52 594.657 1525.19 597.162 1527.41 600.39C1524.85 603.285 1522.68 606.18 1520.9 609.074C1519.23 611.969 1517.67 614.975 1516.23 618.092C1514.89 621.21 1513.61 624.438 1512.38 627.778C1511.27 631.118 1509.99 634.625 1508.54 638.299C1507.32 641.417 1506.21 644.645 1505.2 647.985C1504.2 651.214 1503.64 654.053 1503.53 656.502C1503.53 658.506 1503.48 659.898 1503.37 660.677C1503.37 661.568 1503.09 662.013 1502.53 662.013C1502.09 662.013 1501.2 661.735 1499.86 661.178C1498.52 660.622 1497.13 659.787 1495.68 658.673C1494.35 657.449 1493.12 655.946 1492.01 654.164C1490.9 652.383 1490.34 650.268 1490.34 647.818ZM1522.24 575.34C1522.24 574.672 1522.4 573.67 1522.74 572.334C1522.18 571.778 1521.68 570.943 1521.24 569.829C1520.9 568.716 1520.73 567.714 1520.73 566.823C1520.73 565.821 1520.85 564.485 1521.07 562.815C1521.4 561.034 1521.79 559.141 1522.24 557.137C1522.68 555.133 1523.24 553.074 1523.91 550.958C1524.58 548.732 1525.24 546.728 1525.91 544.946C1527.25 544.946 1528.86 545.336 1530.75 546.115C1532.76 546.783 1534.76 547.73 1536.77 548.954C1538.77 550.068 1540.61 551.348 1542.28 552.795C1543.95 554.131 1545.23 555.412 1546.12 556.636C1544.89 557.861 1543.28 559.587 1541.28 561.813C1539.27 563.929 1537.32 566.211 1535.43 568.66C1533.54 570.998 1531.81 573.225 1530.25 575.34C1528.69 577.456 1527.69 578.959 1527.25 579.849C1525.91 579.627 1524.74 579.07 1523.74 578.179C1522.74 577.177 1522.24 576.231 1522.24 575.34ZM1589.43 589.869C1588.98 596.772 1587.76 602.728 1585.75 607.738C1583.75 612.637 1580.85 616.979 1577.07 620.764C1573.39 624.438 1568.89 627.778 1563.54 630.784C1558.2 633.79 1551.96 636.685 1544.84 639.468C1544.84 640.136 1544.78 640.86 1544.67 641.639C1544.67 642.307 1544.67 643.031 1544.67 643.81C1544.67 645.258 1544.78 646.761 1545 648.319C1545.23 649.878 1545.62 651.325 1546.17 652.661C1546.73 653.997 1547.51 655.111 1548.51 656.001C1549.51 656.781 1550.79 657.17 1552.35 657.17C1555.36 657.17 1558.31 656.502 1561.2 655.166C1564.1 653.83 1566.83 652.216 1569.39 650.323C1572.06 648.319 1574.51 646.204 1576.73 643.977C1579.07 641.639 1581.13 639.524 1582.91 637.631C1584.03 638.633 1584.97 639.58 1585.75 640.47C1580.74 647.15 1575.23 652.717 1569.22 657.17C1563.32 661.512 1557.7 664.296 1552.35 665.52C1544.67 664.63 1538.66 661.846 1534.32 657.17C1530.09 652.383 1527.97 646.649 1527.97 639.969C1527.97 635.405 1528.58 630.784 1529.81 626.108C1531.14 621.321 1532.92 616.756 1535.15 612.414C1537.49 607.961 1540.16 603.786 1543.17 599.889C1546.28 595.993 1549.57 592.597 1553.02 589.702C1556.58 586.808 1560.2 584.525 1563.88 582.855C1567.66 581.185 1571.39 580.35 1575.06 580.35C1580.19 581.018 1584.97 584.191 1589.43 589.869ZM1577.9 595.38C1574.9 595.826 1571.78 597.05 1568.55 599.054C1565.32 601.058 1562.26 603.73 1559.37 607.07C1556.58 610.41 1554.02 614.307 1551.68 618.76C1549.35 623.214 1547.51 628.001 1546.17 633.122C1555.08 628.669 1562.48 623.214 1568.38 616.756C1574.29 610.188 1577.46 603.062 1577.9 595.38ZM1654.77 592.541C1654.66 594.657 1654.27 596.883 1653.6 599.221C1653.05 601.448 1652.32 603.508 1651.43 605.4C1650.54 607.182 1649.6 608.685 1648.59 609.909C1647.59 611.134 1646.65 611.746 1645.75 611.746C1644.53 611.635 1643.81 610.8 1643.58 609.241C1643.58 608.907 1643.7 608.406 1643.92 607.738C1644.25 606.959 1644.59 606.124 1644.92 605.233C1645.25 604.343 1645.53 603.452 1645.75 602.561C1646.09 601.671 1646.26 600.891 1646.26 600.223C1646.26 598.665 1645.87 597.384 1645.09 596.382C1644.42 595.269 1643.47 594.712 1642.25 594.712C1637.79 594.712 1634.4 597.496 1632.06 603.062C1629.72 608.629 1628.55 616.812 1628.55 627.611C1628.55 628.725 1628.61 629.393 1628.72 629.615C1631.06 629.504 1633.12 629.448 1634.9 629.448C1636.79 629.337 1638.63 629.281 1640.41 629.281C1640.52 629.504 1640.58 629.949 1640.58 630.617C1640.58 631.619 1640.36 632.343 1639.91 632.788C1637.35 633.345 1635.29 633.846 1633.73 634.291C1632.28 634.625 1631.17 634.959 1630.39 635.293C1629.61 635.627 1629.11 636.017 1628.89 636.462C1628.78 636.796 1628.72 637.297 1628.72 637.965C1628.72 638.856 1628.72 639.747 1628.72 640.637C1628.83 641.528 1628.89 642.641 1628.89 643.977C1628.89 653.329 1626.33 660.844 1621.21 666.522C1616.2 672.2 1609.18 675.485 1600.16 676.375C1598.61 676.264 1596.99 675.819 1595.32 675.039C1593.65 674.26 1592.04 673.258 1590.48 672.033C1589.03 670.809 1587.75 669.417 1586.64 667.858C1585.52 666.411 1584.74 664.908 1584.3 663.349C1584.3 659.119 1585.19 655.111 1586.97 651.325C1588.75 647.429 1591.15 644.033 1594.15 641.138C1597.27 638.132 1600.89 635.739 1605.01 633.957C1609.24 632.065 1613.8 630.951 1618.7 630.617C1618.7 627.834 1618.42 625.106 1617.87 622.434C1617.31 619.762 1616.7 617.202 1616.03 614.752C1615.47 612.192 1614.92 609.742 1614.36 607.404C1613.8 604.955 1613.52 602.561 1613.52 600.223C1613.52 597.217 1614.14 594.267 1615.36 591.372C1616.59 588.366 1618.2 585.639 1620.2 583.189C1622.21 580.629 1624.55 578.458 1627.22 576.676C1629.89 574.895 1632.67 573.67 1635.57 573.002C1636.79 573.336 1638.41 574.338 1640.41 576.008C1642.53 577.567 1644.59 579.348 1646.59 581.352C1648.59 583.356 1650.38 585.416 1651.93 587.531C1653.49 589.535 1654.44 591.205 1654.77 592.541ZM1599.66 668.693C1602.33 667.58 1604.84 665.966 1607.18 663.85C1609.63 661.735 1611.74 659.341 1613.52 656.669C1615.31 653.997 1616.7 651.158 1617.7 648.152C1618.81 645.146 1619.37 642.196 1619.37 639.301C1617.14 639.635 1614.69 640.693 1612.02 642.474C1609.35 644.144 1606.84 646.204 1604.51 648.653C1602.17 650.991 1600.22 653.441 1598.66 656.001C1597.1 658.562 1596.32 660.789 1596.32 662.681C1596.32 665.131 1597.44 667.135 1599.66 668.693Z" fill="url(#paint38_linear_2_216)"/>
<defs>
<linearGradient id="paint0_linear_2_216" x1="368.476" y1="94.1778" x2="-39.5241" y2="364.178" gradientUnits="userSpaceOnUse">
<stop stop-color="#EB1B90"/>
<stop offset="0.2325" stop-color="#F0576B"/>
<stop offset="0.4993" stop-color="#F59644"/>
<stop offset="0.7257" stop-color="#F9C328"/>
<stop offset="0.8995" stop-color="#FBE016"/>
<stop offset="1" stop-color="#FCEA10"/>
</linearGradient>
<linearGradient id="paint1_linear_2_216" x1="0.000307356" y1="213.158" x2="403.612" y2="213.158" gradientUnits="userSpaceOnUse">
<stop stop-color="#FFC202" stop-opacity="0.7"/>
<stop offset="0.1964" stop-color="#FEBE03" stop-opacity="0.7589"/>
<stop offset="0.3805" stop-color="#FCB305" stop-opacity="0.8141"/>
<stop offset="0.5596" stop-color="#F9A009" stop-opacity="0.8679"/>
<stop offset="0.7356" stop-color="#F4850F" stop-opacity="0.9207"/>
<stop offset="0.9079" stop-color="#ED6316" stop-opacity="0.9724"/>
<stop offset="1" stop-color="#E94E1B"/>
</linearGradient>
<linearGradient id="paint2_linear_2_216" x1="445.887" y1="105.593" x2="523.862" y2="105.593" gradientUnits="userSpaceOnUse">
<stop stop-color="#FFC202" stop-opacity="0.7"/>
<stop offset="0.1964" stop-color="#FEBE03" stop-opacity="0.7589"/>
<stop offset="0.3805" stop-color="#FCB305" stop-opacity="0.8141"/>
<stop offset="0.5596" stop-color="#F9A009" stop-opacity="0.8679"/>
<stop offset="0.7356" stop-color="#F4850F" stop-opacity="0.9207"/>
<stop offset="0.9079" stop-color="#ED6316" stop-opacity="0.9724"/>
<stop offset="1" stop-color="#E94E1B"/>
</linearGradient>
<linearGradient id="paint3_linear_2_216" x1="262.663" y1="65.3284" x2="-100.319" y2="102.827" gradientUnits="userSpaceOnUse">
<stop stop-color="#EB1B90"/>
<stop offset="0.2325" stop-color="#F0576B"/>
<stop offset="0.4993" stop-color="#F59644"/>
<stop offset="0.7257" stop-color="#F9C328"/>
<stop offset="0.8995" stop-color="#FBE016"/>
<stop offset="1" stop-color="#FCEA10"/>
</linearGradient>
<linearGradient id="paint4_linear_2_216" x1="506.479" y1="240.695" x2="132.451" y2="497.777" gradientUnits="userSpaceOnUse">
<stop stop-color="#EB1B90"/>
<stop offset="0.2325" stop-color="#F0576B"/>
<stop offset="0.4993" stop-color="#F59644"/>
<stop offset="0.7257" stop-color="#F9C328"/>
<stop offset="0.8995" stop-color="#FBE016"/>
<stop offset="1" stop-color="#FCEA10"/>
</linearGradient>
<linearGradient id="paint5_linear_2_216" x1="216.197" y1="295.533" x2="368.279" y2="295.533" gradientUnits="userSpaceOnUse">
<stop stop-color="#FFC202" stop-opacity="0.7"/>
<stop offset="0.1964" stop-color="#FEBE03" stop-opacity="0.7589"/>
<stop offset="0.3805" stop-color="#FCB305" stop-opacity="0.8141"/>
<stop offset="0.5596" stop-color="#F9A009" stop-opacity="0.8679"/>
<stop offset="0.7356" stop-color="#F4850F" stop-opacity="0.9207"/>
<stop offset="0.9079" stop-color="#ED6316" stop-opacity="0.9724"/>
<stop offset="1" stop-color="#E94E1B"/>
</linearGradient>
<linearGradient id="paint6_linear_2_216" x1="416.352" y1="97.3573" x2="197.888" y2="466.455" gradientUnits="userSpaceOnUse">
<stop stop-color="#FCEA10" stop-opacity="0.7"/>
<stop offset="0.1584" stop-color="#FCE611" stop-opacity="0.7475"/>
<stop offset="0.3067" stop-color="#FADB12" stop-opacity="0.792"/>
<stop offset="0.4512" stop-color="#F8C815" stop-opacity="0.8354"/>
<stop offset="0.5932" stop-color="#F5AD19" stop-opacity="0.8779"/>
<stop offset="0.7335" stop-color="#F18B1E" stop-opacity="0.92"/>
<stop offset="0.8704" stop-color="#EC6223" stop-opacity="0.9611"/>
<stop offset="1" stop-color="#E6332A"/>
</linearGradient>
<linearGradient id="paint7_linear_2_216" x1="438.464" y1="136.415" x2="-37.7778" y2="463.751" gradientUnits="userSpaceOnUse">
<stop stop-color="#EB1B90"/>
<stop offset="0.2325" stop-color="#F0576B"/>
<stop offset="0.4993" stop-color="#F59644"/>
<stop offset="0.7257" stop-color="#F9C328"/>
<stop offset="0.8995" stop-color="#FBE016"/>
<stop offset="1" stop-color="#FCEA10"/>
</linearGradient>
<linearGradient id="paint8_linear_2_216" x1="487.936" y1="47.9252" x2="423.63" y2="306.91" gradientUnits="userSpaceOnUse">
<stop stop-color="#FCEA10" stop-opacity="0.7"/>
<stop offset="0.1584" stop-color="#FCE611" stop-opacity="0.7475"/>
<stop offset="0.3067" stop-color="#FADB12" stop-opacity="0.792"/>
<stop offset="0.4512" stop-color="#F8C815" stop-opacity="0.8354"/>
<stop offset="0.5932" stop-color="#F5AD19" stop-opacity="0.8779"/>
<stop offset="0.7335" stop-color="#F18B1E" stop-opacity="0.92"/>
<stop offset="0.8704" stop-color="#EC6223" stop-opacity="0.9611"/>
<stop offset="1" stop-color="#E6332A"/>
</linearGradient>
<linearGradient id="paint9_linear_2_216" x1="606.903" y1="-14.1724" x2="309.903" y2="159.828" gradientUnits="userSpaceOnUse">
<stop stop-color="#EB1B90"/>
<stop offset="0.2325" stop-color="#F0576B"/>
<stop offset="0.4993" stop-color="#F59644"/>
<stop offset="0.7257" stop-color="#F9C328"/>
<stop offset="0.8995" stop-color="#FBE016"/>
<stop offset="1" stop-color="#FCEA10"/>
</linearGradient>
<linearGradient id="paint10_linear_2_216" x1="72.9283" y1="289.772" x2="394.279" y2="289.772" gradientUnits="userSpaceOnUse">
<stop stop-color="#FFC202" stop-opacity="0.7"/>
<stop offset="0.1964" stop-color="#FEBE03" stop-opacity="0.7589"/>
<stop offset="0.3805" stop-color="#FCB305" stop-opacity="0.8141"/>
<stop offset="0.5596" stop-color="#F9A009" stop-opacity="0.8679"/>
<stop offset="0.7356" stop-color="#F4850F" stop-opacity="0.9207"/>
<stop offset="0.9079" stop-color="#ED6316" stop-opacity="0.9724"/>
<stop offset="1" stop-color="#E94E1B"/>
</linearGradient>
<linearGradient id="paint11_linear_2_216" x1="605.154" y1="46.857" x2="283.154" y2="89.857" gradientUnits="userSpaceOnUse">
<stop stop-color="#EB1B90"/>
<stop offset="0.2325" stop-color="#F0576B"/>
<stop offset="0.4993" stop-color="#F59644"/>
<stop offset="0.7257" stop-color="#F9C328"/>
<stop offset="0.8995" stop-color="#FBE016"/>
<stop offset="1" stop-color="#FCEA10"/>
</linearGradient>
<linearGradient id="paint12_linear_2_216" x1="431.528" y1="8.36884" x2="411.884" y2="80.1561" gradientUnits="userSpaceOnUse">
<stop stop-color="#EB1B90"/>
<stop offset="0.2325" stop-color="#F0576B"/>
<stop offset="0.4993" stop-color="#F59644"/>
<stop offset="0.7257" stop-color="#F9C328"/>
<stop offset="0.8995" stop-color="#FBE016"/>
<stop offset="1" stop-color="#FCEA10"/>
</linearGradient>
<linearGradient id="paint13_linear_2_216" x1="490.733" y1="28.7208" x2="377.978" y2="213.71" gradientUnits="userSpaceOnUse">
<stop stop-color="#FCEA10" stop-opacity="0.7"/>
<stop offset="0.1584" stop-color="#FCE611" stop-opacity="0.7475"/>
<stop offset="0.3067" stop-color="#FADB12" stop-opacity="0.792"/>
<stop offset="0.4512" stop-color="#F8C815" stop-opacity="0.8354"/>
<stop offset="0.5932" stop-color="#F5AD19" stop-opacity="0.8779"/>
<stop offset="0.7335" stop-color="#F18B1E" stop-opacity="0.92"/>
<stop offset="0.8704" stop-color="#EC6223" stop-opacity="0.9611"/>
<stop offset="1" stop-color="#E6332A"/>
</linearGradient>
<linearGradient id="paint14_linear_2_216" x1="431.328" y1="99.9468" x2="328.263" y2="249.7" gradientUnits="userSpaceOnUse">
<stop stop-color="#FCEA10" stop-opacity="0.7"/>
<stop offset="0.1584" stop-color="#FCE611" stop-opacity="0.7475"/>
<stop offset="0.3067" stop-color="#FADB12" stop-opacity="0.792"/>
<stop offset="0.4512" stop-color="#F8C815" stop-opacity="0.8354"/>
<stop offset="0.5932" stop-color="#F5AD19" stop-opacity="0.8779"/>
<stop offset="0.7335" stop-color="#F18B1E" stop-opacity="0.92"/>
<stop offset="0.8704" stop-color="#EC6223" stop-opacity="0.9611"/>
<stop offset="1" stop-color="#E6332A"/>
</linearGradient>
<linearGradient id="paint15_linear_2_216" x1="511.849" y1="55.5282" x2="451.947" y2="175.331" gradientUnits="userSpaceOnUse">
<stop stop-color="#FCEA10" stop-opacity="0.7"/>
<stop offset="0.1584" stop-color="#FCE611" stop-opacity="0.7475"/>
<stop offset="0.3067" stop-color="#FADB12" stop-opacity="0.792"/>
<stop offset="0.4512" stop-color="#F8C815" stop-opacity="0.8354"/>
<stop offset="0.5932" stop-color="#F5AD19" stop-opacity="0.8779"/>
<stop offset="0.7335" stop-color="#F18B1E" stop-opacity="0.92"/>
<stop offset="0.8704" stop-color="#EC6223" stop-opacity="0.9611"/>
<stop offset="1" stop-color="#E6332A"/>
</linearGradient>
<linearGradient id="paint16_linear_2_216" x1="208.51" y1="493.368" x2="383.809" y2="128.674" gradientUnits="userSpaceOnUse">
<stop stop-color="#DCED00" stop-opacity="0.7"/>
<stop offset="0.1451" stop-color="#D8EC02" stop-opacity="0.7435"/>
<stop offset="0.2811" stop-color="#CDE709" stop-opacity="0.7843"/>
<stop offset="0.4136" stop-color="#BAE014" stop-opacity="0.8241"/>
<stop offset="0.5438" stop-color="#9FD623" stop-opacity="0.8631"/>
<stop offset="0.6725" stop-color="#7DCA37" stop-opacity="0.9018"/>
<stop offset="0.7999" stop-color="#53BA4F" stop-opacity="0.94"/>
<stop offset="0.924" stop-color="#22A86B" stop-opacity="0.9772"/>
<stop offset="1" stop-color="#009B7F"/>
</linearGradient>
<linearGradient id="paint17_linear_2_216" x1="443.29" y1="163.149" x2="372.29" y2="642.149" gradientUnits="userSpaceOnUse">
<stop stop-color="#EB1B90"/>
<stop offset="0.2325" stop-color="#F0576B"/>
<stop offset="0.4993" stop-color="#F59644"/>
<stop offset="0.7257" stop-color="#F9C328"/>
<stop offset="0.8995" stop-color="#FBE016"/>
<stop offset="1" stop-color="#FCEA10"/>
</linearGradient>
<linearGradient id="paint18_linear_2_216" x1="135.634" y1="489.062" x2="391.096" y2="97.0605" gradientUnits="userSpaceOnUse">
<stop stop-color="#DCED00" stop-opacity="0.7"/>
<stop offset="0.1451" stop-color="#D8EC02" stop-opacity="0.7435"/>
<stop offset="0.2811" stop-color="#CDE709" stop-opacity="0.7843"/>
<stop offset="0.4136" stop-color="#BAE014" stop-opacity="0.8241"/>
<stop offset="0.5438" stop-color="#9FD623" stop-opacity="0.8631"/>
<stop offset="0.6725" stop-color="#7DCA37" stop-opacity="0.9018"/>
<stop offset="0.7999" stop-color="#53BA4F" stop-opacity="0.94"/>
<stop offset="0.924" stop-color="#22A86B" stop-opacity="0.9772"/>
<stop offset="1" stop-color="#009B7F"/>
</linearGradient>
<linearGradient id="paint19_linear_2_216" x1="48.9738" y1="263.369" x2="420.287" y2="42.8747" gradientUnits="userSpaceOnUse">
<stop stop-color="#DCED00" stop-opacity="0.7"/>
<stop offset="0.1451" stop-color="#D8EC02" stop-opacity="0.7435"/>
<stop offset="0.2811" stop-color="#CDE709" stop-opacity="0.7843"/>
<stop offset="0.4136" stop-color="#BAE014" stop-opacity="0.8241"/>
<stop offset="0.5438" stop-color="#9FD623" stop-opacity="0.8631"/>
<stop offset="0.6725" stop-color="#7DCA37" stop-opacity="0.9018"/>
<stop offset="0.7999" stop-color="#53BA4F" stop-opacity="0.94"/>
<stop offset="0.924" stop-color="#22A86B" stop-opacity="0.9772"/>
<stop offset="1" stop-color="#009B7F"/>
</linearGradient>
<linearGradient id="paint20_linear_2_216" x1="264.606" y1="441.142" x2="508.616" y2="40.3316" gradientUnits="userSpaceOnUse">
<stop stop-color="#DCED00" stop-opacity="0.7"/>
<stop offset="0.1451" stop-color="#D8EC02" stop-opacity="0.7435"/>
<stop offset="0.2811" stop-color="#CDE709" stop-opacity="0.7843"/>
<stop offset="0.4136" stop-color="#BAE014" stop-opacity="0.8241"/>
<stop offset="0.5438" stop-color="#9FD623" stop-opacity="0.8631"/>
<stop offset="0.6725" stop-color="#7DCA37" stop-opacity="0.9018"/>
<stop offset="0.7999" stop-color="#53BA4F" stop-opacity="0.94"/>
<stop offset="0.924" stop-color="#22A86B" stop-opacity="0.9772"/>
<stop offset="1" stop-color="#009B7F"/>
</linearGradient>
<linearGradient id="paint21_linear_2_216" x1="223.972" y1="326.955" x2="453.006" y2="91.7541" gradientUnits="userSpaceOnUse">
<stop stop-color="#DCED00" stop-opacity="0.7"/>
<stop offset="0.1451" stop-color="#D8EC02" stop-opacity="0.7435"/>
<stop offset="0.2811" stop-color="#CDE709" stop-opacity="0.7843"/>
<stop offset="0.4136" stop-color="#BAE014" stop-opacity="0.8241"/>
<stop offset="0.5438" stop-color="#9FD623" stop-opacity="0.8631"/>
<stop offset="0.6725" stop-color="#7DCA37" stop-opacity="0.9018"/>
<stop offset="0.7999" stop-color="#53BA4F" stop-opacity="0.94"/>
<stop offset="0.924" stop-color="#22A86B" stop-opacity="0.9772"/>
<stop offset="1" stop-color="#009B7F"/>
</linearGradient>
<linearGradient id="paint22_linear_2_216" x1="199.367" y1="129.655" x2="486.541" y2="52.1359" gradientUnits="userSpaceOnUse">
<stop stop-color="#DCED00" stop-opacity="0.7"/>
<stop offset="0.1451" stop-color="#D8EC02" stop-opacity="0.7435"/>
<stop offset="0.2811" stop-color="#CDE709" stop-opacity="0.7843"/>
<stop offset="0.4136" stop-color="#BAE014" stop-opacity="0.8241"/>
<stop offset="0.5438" stop-color="#9FD623" stop-opacity="0.8631"/>
<stop offset="0.6725" stop-color="#7DCA37" stop-opacity="0.9018"/>
<stop offset="0.7999" stop-color="#53BA4F" stop-opacity="0.94"/>
<stop offset="0.924" stop-color="#22A86B" stop-opacity="0.9772"/>
<stop offset="1" stop-color="#009B7F"/>
</linearGradient>
<linearGradient id="paint23_linear_2_216" x1="438.994" y1="269.542" x2="527.965" y2="70.458" gradientUnits="userSpaceOnUse">
<stop stop-color="#DCED00" stop-opacity="0.7"/>
<stop offset="0.1451" stop-color="#D8EC02" stop-opacity="0.7435"/>
<stop offset="0.2811" stop-color="#CDE709" stop-opacity="0.7843"/>
<stop offset="0.4136" stop-color="#BAE014" stop-opacity="0.8241"/>
<stop offset="0.5438" stop-color="#9FD623" stop-opacity="0.8631"/>
<stop offset="0.6725" stop-color="#7DCA37" stop-opacity="0.9018"/>
<stop offset="0.7999" stop-color="#53BA4F" stop-opacity="0.94"/>
<stop offset="0.924" stop-color="#22A86B" stop-opacity="0.9772"/>
<stop offset="1" stop-color="#009B7F"/>
</linearGradient>
<linearGradient id="paint24_linear_2_216" x1="407.368" y1="219.289" x2="513.076" y2="26.3719" gradientUnits="userSpaceOnUse">
<stop stop-color="#DCED00" stop-opacity="0.7"/>
<stop offset="0.1451" stop-color="#D8EC02" stop-opacity="0.7435"/>
<stop offset="0.2811" stop-color="#CDE709" stop-opacity="0.7843"/>
<stop offset="0.4136" stop-color="#BAE014" stop-opacity="0.8241"/>
<stop offset="0.5438" stop-color="#9FD623" stop-opacity="0.8631"/>
<stop offset="0.6725" stop-color="#7DCA37" stop-opacity="0.9018"/>
<stop offset="0.7999" stop-color="#53BA4F" stop-opacity="0.94"/>
<stop offset="0.924" stop-color="#22A86B" stop-opacity="0.9772"/>
<stop offset="1" stop-color="#009B7F"/>
</linearGradient>
<linearGradient id="paint25_linear_2_216" x1="305.377" y1="112.083" x2="498.294" y2="55.7056" gradientUnits="userSpaceOnUse">
<stop stop-color="#DCED00" stop-opacity="0.7"/>
<stop offset="0.1451" stop-color="#D8EC02" stop-opacity="0.7435"/>
<stop offset="0.2811" stop-color="#CDE709" stop-opacity="0.7843"/>
<stop offset="0.4136" stop-color="#BAE014" stop-opacity="0.8241"/>
<stop offset="0.5438" stop-color="#9FD623" stop-opacity="0.8631"/>
<stop offset="0.6725" stop-color="#7DCA37" stop-opacity="0.9018"/>
<stop offset="0.7999" stop-color="#53BA4F" stop-opacity="0.94"/>
<stop offset="0.924" stop-color="#22A86B" stop-opacity="0.9772"/>
<stop offset="1" stop-color="#009B7F"/>
</linearGradient>
<linearGradient id="paint26_linear_2_216" x1="319.117" y1="61.7512" x2="508.511" y2="35.3242" gradientUnits="userSpaceOnUse">
<stop stop-color="#DCED00" stop-opacity="0.7"/>
<stop offset="0.1451" stop-color="#D8EC02" stop-opacity="0.7435"/>
<stop offset="0.2811" stop-color="#CDE709" stop-opacity="0.7843"/>
<stop offset="0.4136" stop-color="#BAE014" stop-opacity="0.8241"/>
<stop offset="0.5438" stop-color="#9FD623" stop-opacity="0.8631"/>
<stop offset="0.6725" stop-color="#7DCA37" stop-opacity="0.9018"/>
<stop offset="0.7999" stop-color="#53BA4F" stop-opacity="0.94"/>
<stop offset="0.924" stop-color="#22A86B" stop-opacity="0.9772"/>
<stop offset="1" stop-color="#009B7F"/>
</linearGradient>
<linearGradient id="paint27_linear_2_216" x1="462.588" y1="101.05" x2="506.633" y2="25.2926" gradientUnits="userSpaceOnUse">
<stop stop-color="#DCED00" stop-opacity="0.7"/>
<stop offset="0.1451" stop-color="#D8EC02" stop-opacity="0.7435"/>
<stop offset="0.2811" stop-color="#CDE709" stop-opacity="0.7843"/>
<stop offset="0.4136" stop-color="#BAE014" stop-opacity="0.8241"/>
<stop offset="0.5438" stop-color="#9FD623" stop-opacity="0.8631"/>
<stop offset="0.6725" stop-color="#7DCA37" stop-opacity="0.9018"/>
<stop offset="0.7999" stop-color="#53BA4F" stop-opacity="0.94"/>
<stop offset="0.924" stop-color="#22A86B" stop-opacity="0.9772"/>
<stop offset="1" stop-color="#009B7F"/>
</linearGradient>
<linearGradient id="paint28_linear_2_216" x1="230.454" y1="285.164" x2="460.279" y2="285.164" gradientUnits="userSpaceOnUse">
<stop stop-color="#FFC202" stop-opacity="0.7"/>
<stop offset="0.1964" stop-color="#FEBE03" stop-opacity="0.7589"/>
<stop offset="0.3805" stop-color="#FCB305" stop-opacity="0.8141"/>
<stop offset="0.5596" stop-color="#F9A009" stop-opacity="0.8679"/>
<stop offset="0.7356" stop-color="#F4850F" stop-opacity="0.9207"/>
<stop offset="0.9079" stop-color="#ED6316" stop-opacity="0.9724"/>
<stop offset="1" stop-color="#E94E1B"/>
</linearGradient>
<linearGradient id="paint29_linear_2_216" x1="386.041" y1="195.708" x2="529.016" y2="195.708" gradientUnits="userSpaceOnUse">
<stop stop-color="#FFC202" stop-opacity="0.7"/>
<stop offset="0.1964" stop-color="#FEBE03" stop-opacity="0.7589"/>
<stop offset="0.3805" stop-color="#FCB305" stop-opacity="0.8141"/>
<stop offset="0.5596" stop-color="#F9A009" stop-opacity="0.8679"/>
<stop offset="0.7356" stop-color="#F4850F" stop-opacity="0.9207"/>
<stop offset="0.9079" stop-color="#ED6316" stop-opacity="0.9724"/>
<stop offset="1" stop-color="#E94E1B"/>
</linearGradient>
<linearGradient id="paint30_linear_2_216" x1="383.799" y1="197.292" x2="517.617" y2="197.292" gradientUnits="userSpaceOnUse">
<stop stop-color="#FFC202" stop-opacity="0.7"/>
<stop offset="0.1964" stop-color="#FEBE03" stop-opacity="0.7589"/>
<stop offset="0.3805" stop-color="#FCB305" stop-opacity="0.8141"/>
<stop offset="0.5596" stop-color="#F9A009" stop-opacity="0.8679"/>
<stop offset="0.7356" stop-color="#F4850F" stop-opacity="0.9207"/>
<stop offset="0.9079" stop-color="#ED6316" stop-opacity="0.9724"/>
<stop offset="1" stop-color="#E94E1B"/>
</linearGradient>
<linearGradient id="paint31_linear_2_216" x1="331.799" y1="232.283" x2="432.222" y2="232.283" gradientUnits="userSpaceOnUse">
<stop stop-color="#FFC202" stop-opacity="0.7"/>
<stop offset="0.1964" stop-color="#FEBE03" stop-opacity="0.7589"/>
<stop offset="0.3805" stop-color="#FCB305" stop-opacity="0.8141"/>
<stop offset="0.5596" stop-color="#F9A009" stop-opacity="0.8679"/>
<stop offset="0.7356" stop-color="#F4850F" stop-opacity="0.9207"/>
<stop offset="0.9079" stop-color="#ED6316" stop-opacity="0.9724"/>
<stop offset="1" stop-color="#E94E1B"/>
</linearGradient>
<linearGradient id="paint32_linear_2_216" x1="511.105" y1="60.1135" x2="430.105" y2="356.113" gradientUnits="userSpaceOnUse">
<stop stop-color="#EB1B90"/>
<stop offset="0.2325" stop-color="#F0576B"/>
<stop offset="0.4993" stop-color="#F59644"/>
<stop offset="0.7257" stop-color="#F9C328"/>
<stop offset="0.8995" stop-color="#FBE016"/>
<stop offset="1" stop-color="#FCEA10"/>
</linearGradient>
<linearGradient id="paint33_linear_2_216" x1="282.209" y1="75.7304" x2="476.238" y2="75.7304" gradientUnits="userSpaceOnUse">
<stop stop-color="#FFC202" stop-opacity="0.7"/>
<stop offset="0.1964" stop-color="#FEBE03" stop-opacity="0.7589"/>
<stop offset="0.3805" stop-color="#FCB305" stop-opacity="0.8141"/>
<stop offset="0.5596" stop-color="#F9A009" stop-opacity="0.8679"/>
<stop offset="0.7356" stop-color="#F4850F" stop-opacity="0.9207"/>
<stop offset="0.9079" stop-color="#ED6316" stop-opacity="0.9724"/>
<stop offset="1" stop-color="#E94E1B"/>
</linearGradient>
<linearGradient id="paint34_linear_2_216" x1="524" y1="23.7769" x2="153" y2="278.777" gradientUnits="userSpaceOnUse">
<stop stop-color="#EB1B90"/>
<stop offset="0.2325" stop-color="#F0576B"/>
<stop offset="0.4993" stop-color="#F59644"/>
<stop offset="0.7257" stop-color="#F9C328"/>
<stop offset="0.8995" stop-color="#FBE016"/>
<stop offset="1" stop-color="#FCEA10"/>
</linearGradient>
<linearGradient id="paint35_linear_2_216" x1="1084.67" y1="239.003" x2="1458" y2="239.003" gradientUnits="userSpaceOnUse">
<stop stop-color="#FFC202" stop-opacity="0.7"/>
<stop offset="0.1964" stop-color="#FEBE03" stop-opacity="0.7589"/>
<stop offset="0.3805" stop-color="#FCB305" stop-opacity="0.8141"/>
<stop offset="0.5596" stop-color="#F9A009" stop-opacity="0.8679"/>
<stop offset="0.7356" stop-color="#F4850F" stop-opacity="0.9207"/>
<stop offset="0.9079" stop-color="#ED6316" stop-opacity="0.9724"/>
<stop offset="1" stop-color="#E94E1B"/>
</linearGradient>
<linearGradient id="paint36_linear_2_216" x1="890.536" y1="233.156" x2="1136.95" y2="233.156" gradientUnits="userSpaceOnUse">
<stop stop-color="#FFC202" stop-opacity="0.7"/>
<stop offset="0.1964" stop-color="#FEBE03" stop-opacity="0.7589"/>
<stop offset="0.3805" stop-color="#FCB305" stop-opacity="0.8141"/>
<stop offset="0.5596" stop-color="#F9A009" stop-opacity="0.8679"/>
<stop offset="0.7356" stop-color="#F4850F" stop-opacity="0.9207"/>
<stop offset="0.9079" stop-color="#ED6316" stop-opacity="0.9724"/>
<stop offset="1" stop-color="#E94E1B"/>
</linearGradient>
<linearGradient id="paint37_linear_2_216" x1="659.034" y1="236.252" x2="982.079" y2="236.252" gradientUnits="userSpaceOnUse">
<stop stop-color="#FFC202" stop-opacity="0.7"/>
<stop offset="0.1964" stop-color="#FEBE03" stop-opacity="0.7589"/>
<stop offset="0.3805" stop-color="#FCB305" stop-opacity="0.8141"/>
<stop offset="0.5596" stop-color="#F9A009" stop-opacity="0.8679"/>
<stop offset="0.7356" stop-color="#F4850F" stop-opacity="0.9207"/>
<stop offset="0.9079" stop-color="#ED6316" stop-opacity="0.9724"/>
<stop offset="1" stop-color="#E94E1B"/>
</linearGradient>
<linearGradient id="paint38_linear_2_216" x1="1414.87" y1="467.628" x2="1406.41" y2="883.25" gradientUnits="userSpaceOnUse">
<stop stop-color="#EB1B90"/>
<stop offset="0.2325" stop-color="#F0576B"/>
<stop offset="0.4993" stop-color="#F59644"/>
<stop offset="0.7257" stop-color="#F9C328"/>
<stop offset="0.8995" stop-color="#FBE016"/>
<stop offset="1" stop-color="#FCEA10"/>
</linearGradient>
</defs>
</svg>
